<svg xmlns="http://www.w3.org/2000/svg" viewBox="837 2586.2 43.6 43.6">
  <defs>
    <style>
      .cls-1 {
        fill: #fff;
      }
    </style>
  </defs>
  <g id="category2" transform="translate(836.999 2586.2)">
    <path id="Path_554" data-name="Path 554" class="cls-1" d="M396.494,411.267a.852.852,0,1,0,.25.6A.857.857,0,0,0,396.494,411.267Z" transform="translate(-361.399 -376.017)"/>
    <path id="Path_555" data-name="Path 555" class="cls-1" d="M66.466,443.287a.852.852,0,1,0,.25.6A.857.857,0,0,0,66.466,443.287Z" transform="translate(-59.475 -405.31)"/>
    <path id="Path_556" data-name="Path 556" class="cls-1" d="M311.38,97.11a16.108,16.108,0,0,0-9.617-7.5.852.852,0,1,0-.455,1.641,14.394,14.394,0,0,1,8.592,6.7.852.852,0,0,0,1.479-.844Z" transform="translate(-275.078 -81.955)"/>
    <path id="Path_557" data-name="Path 557" class="cls-1" d="M254.1,83.155h-.091a.852.852,0,0,0,0,1.7h.086a.852.852,0,0,0,0-1.7Z" transform="translate(-231.597 -76.074)"/>
    <path id="Path_558" data-name="Path 558" class="cls-1" d="M43.6,23.673a.852.852,0,0,0-.852-.852H41.708a19.935,19.935,0,0,0-16.3-18.749V3.612a3.612,3.612,0,1,0-7.224,0v.461a19.935,19.935,0,0,0-16.3,18.749H.853A.852.852,0,0,0,0,23.673a5.459,5.459,0,0,0,4.011,5.256L.481,30.639a.852.852,0,0,0,.742,1.533l4.292-2.079,4.752,9.81L5.975,41.982a.852.852,0,1,0,.742,1.533l5.058-2.45a.852.852,0,0,0,.4-1.138l-.4-.83L23.982,41.58a8.658,8.658,0,0,0,1.725.173A8.818,8.818,0,0,0,31.486,39.6l1.6-1.392a.852.852,0,1,0-1.12-1.283l-1.6,1.392a7.1,7.1,0,0,1-6.045,1.6L10.835,37.169,8.285,31.9l5.9-2.376a5.422,5.422,0,0,1,3.967-.037l6.086,2.319a1.237,1.237,0,0,1-.789,2.343l-4.922-1.445a.852.852,0,1,0-.48,1.634l4.922,1.445a2.965,2.965,0,0,0,.836.121,2.923,2.923,0,0,0,2.177-.972l.3.019q.308.019.616.019a9.993,9.993,0,0,0,5.985-1.992l4.48-3.355a.978.978,0,0,1,1.217.042.972.972,0,0,1,0,1.47L36.106,33.3a.852.852,0,1,0,1.12,1.283l2.483-2.166a2.674,2.674,0,0,0,.36-3.648A5.458,5.458,0,0,0,43.6,23.673ZM19.892,3.612h0a1.909,1.909,0,0,1,3.818,0v.225q-.946-.089-1.909-.09t-1.909.09V3.612ZM21.8,5.45A18.245,18.245,0,0,1,40,22.822H3.6A18.245,18.245,0,0,1,21.8,5.45ZM7.541,30.368l-.6-1.245h3.7Zm24.325,1.251a8.287,8.287,0,0,1-5.141,1.649,2.935,2.935,0,0,0-1.876-3.05l-2.875-1.1H35.2Zm6.285-4.2H5.451a3.753,3.753,0,0,1-3.649-2.9h40A3.753,3.753,0,0,1,38.151,27.42Z"/>
    <path id="Path_559" data-name="Path 559" class="cls-1" d="M207.657,139.52a3,3,0,0,0-1.6.465,3,3,0,0,0-1.6-.465,3.1,3.1,0,0,0-3.051,3.135c0,2.509,3.749,5.079,4.177,5.364a.851.851,0,0,0,.944,0c.427-.285,4.177-2.855,4.177-5.364A3.1,3.1,0,0,0,207.657,139.52Zm-1.6,6.747c-1.188-.887-2.947-2.51-2.947-3.612a1.393,1.393,0,0,1,1.348-1.432,1.3,1.3,0,0,1,.968.436.852.852,0,0,0,1.259,0,1.3,1.3,0,0,1,.968-.436A1.393,1.393,0,0,1,209,142.655C209,143.68,207.411,145.265,206.06,146.267Z" transform="translate(-184.258 -127.639)"/>
  </g>
</svg>
