<svg xmlns="http://www.w3.org/2000/svg" viewBox="837 2775.286 44.4 42.973">
  <defs>
    <style>
      .cls-1 {
        fill: #fff;
      }
    </style>
  </defs>
  <g id="category6" transform="translate(837 2767.059)">
    <path id="Path_575" data-name="Path 575" class="cls-1" d="M87.377,61.1a11.247,11.247,0,1,0,3.294,7.953A11.174,11.174,0,0,0,87.377,61.1Zm-15,.906A9.969,9.969,0,0,1,89.254,67.4L85.762,70.81a2.279,2.279,0,0,0-3.015.722l-5.131-1.61c0-.015,0-.03,0-.045a2.283,2.283,0,1,0-4.264,1.131L70.661,73.8A9.984,9.984,0,0,1,72.377,62.006ZM85.646,72.8a1,1,0,1,1-1-1A1,1,0,0,1,85.646,72.8Zm-9.31-2.921a1,1,0,1,1-1-1A1,1,0,0,1,76.336,69.877ZM86.472,76.1a9.969,9.969,0,0,1-15.108-1.185L74.275,71.9a2.279,2.279,0,0,0,2.957-.754l5.131,1.61c0,.015,0,.03,0,.045a2.283,2.283,0,1,0,4.3-1.073l2.732-2.672A9.9,9.9,0,0,1,86.472,76.1Z" transform="translate(-62.27 -45.28)"/>
    <path id="Path_576" data-name="Path 576" class="cls-1" d="M132.414,89.9l.84.967a7.394,7.394,0,0,1,7.268-1.389l.421-1.21A8.678,8.678,0,0,0,132.414,89.9Z" transform="translate(-120.931 -72.657)"/>
    <path id="Path_577" data-name="Path 577" class="cls-1" d="M242.712,102.292l-.666,1.094a7.358,7.358,0,0,1,.967.7l.835-.971A8.652,8.652,0,0,0,242.712,102.292Z" transform="translate(-221.056 -85.908)"/>
    <path id="Path_578" data-name="Path 578" class="cls-1" d="M165.358,266.726a7.385,7.385,0,0,1-4.284-.369l-.476,1.189a8.65,8.65,0,0,0,3.221.623,8.74,8.74,0,0,0,1.8-.189Z" transform="translate(-146.671 -235.745)"/>
    <path id="Path_579" data-name="Path 579" class="cls-1" d="M33.2,34.064l-.93.93-2.307-2.466a15.562,15.562,0,0,0,1.972-13.46l1.831-1.79a2.281,2.281,0,0,0,3.114-3.045l3.93-3.843v1.986h1.281V8.227H37.94V9.508h1.937L36,13.3a2.281,2.281,0,0,0-3.148,3.078l-1.4,1.372A15.513,15.513,0,1,0,4.42,32.635L3.342,33.753a2.286,2.286,0,1,0,.922.889l.942-.977q.46.555.98,1.077A15.539,15.539,0,0,0,25.873,36.6l2.313,2.472-.962.962L38.425,51.2,44.4,45.226Zm1.646-19.8a1,1,0,1,1-1,1A1,1,0,0,1,34.845,14.266ZM2.283,36.775a1,1,0,1,1,1-1A1,1,0,0,1,2.283,36.775Zm4.809-2.938a14.232,14.232,0,1,1,20.126,0A14.248,14.248,0,0,1,7.091,33.837Zm19.817,2a15.6,15.6,0,0,0,2.274-2.266l2.18,2.33-2.27,2.27ZM38.424,49.39l-9.386-9.354L33.2,35.874l9.386,9.353Z"/>
    <path id="Path_580" data-name="Path 580" class="cls-1" d="M363.542,348.478l-1.833,1.833.906.906.927-.927,3.535,3.535.906-.906Z" transform="translate(-330.342 -310.745)"/>
    <rect id="Rectangle_49" data-name="Rectangle 49" class="cls-1" width="1.281" height="1.342" transform="translate(37.833 44.176) rotate(-45)"/>
    <rect id="Rectangle_50" data-name="Rectangle 50" class="cls-1" width="1.281" height="1.396" transform="translate(6.94 39.935)"/>
    <rect id="Rectangle_51" data-name="Rectangle 51" class="cls-1" width="1.281" height="1.396" transform="translate(6.94 47.757)"/>
    <rect id="Rectangle_52" data-name="Rectangle 52" class="cls-1" width="1.281" height="1.395" transform="translate(17.489 42.627)"/>
    <rect id="Rectangle_53" data-name="Rectangle 53" class="cls-1" width="1.281" height="1.396" transform="translate(35.847 31.106)"/>
    <rect id="Rectangle_54" data-name="Rectangle 54" class="cls-1" width="1.281" height="1.396" transform="translate(37.3 19.991)"/>
    <rect id="Rectangle_55" data-name="Rectangle 55" class="cls-1" width="1.281" height="1.396" transform="translate(41.545 25.877)"/>
  </g>
</svg>
