<svg xmlns="http://www.w3.org/2000/svg" viewBox="1083.08 653 59.738 64.001">
  <g id="exam" transform="translate(1066.029 653)">
    <g id="Group_1827" data-name="Group 1827" transform="translate(17.051)">
      <g id="Group_1826" data-name="Group 1826" transform="translate(0)">
        <path id="Path_528" data-name="Path 528" d="M315.718,308.267a1.067,1.067,0,0,0-1.067-1.067h-6.4a1.067,1.067,0,0,0,0,2.133h6.4A1.067,1.067,0,0,0,315.718,308.267Z" transform="translate(-270.918 -268.799)"/>
        <path id="Path_529" data-name="Path 529" d="M326.384,49.067V43.734a1.067,1.067,0,1,0-2.133,0v5.333a5.339,5.339,0,0,0,5.333,5.333h9.6V74.667a1.067,1.067,0,0,0,2.133,0V53.334a1.067,1.067,0,0,0-1.067-1.067H329.584A3.2,3.2,0,0,1,326.384,49.067Z" transform="translate(-285.85 -37.334)"/>
        <path id="Path_530" data-name="Path 530" d="M299.717,204.8h-8.533a1.067,1.067,0,1,0,0,2.133h8.533a1.067,1.067,0,1,0,0-2.133Z" transform="translate(-255.983 -179.2)"/>
        <path id="Path_531" data-name="Path 531" d="M213.318,205.867a1.067,1.067,0,0,0-1.067-1.067h-6.4a1.067,1.067,0,1,0,0,2.133h6.4A1.067,1.067,0,0,0,213.318,205.867Z" transform="translate(-181.318 -179.2)"/>
        <path id="Path_532" data-name="Path 532" d="M205.851,256a1.067,1.067,0,0,0,0,2.133h2.133a1.067,1.067,0,0,0,0-2.133Z" transform="translate(-181.317 -224)"/>
        <path id="Path_533" data-name="Path 533" d="M205.851,155.734h10.667a1.067,1.067,0,0,0,0-2.133H205.851a1.067,1.067,0,0,0,0,2.133Z" transform="translate(-181.317 -134.401)"/>
        <path id="Path_534" data-name="Path 534" d="M257.051,258.134h10.667a1.067,1.067,0,0,0,0-2.133H257.051a1.067,1.067,0,1,0,0,2.133Z" transform="translate(-226.117 -224)"/>
        <path id="Path_535" data-name="Path 535" d="M308.251,358.4a1.067,1.067,0,0,0,0,2.133h2.133a1.067,1.067,0,1,0,0-2.133Z" transform="translate(-270.917 -313.599)"/>
        <path id="Path_536" data-name="Path 536" d="M214.384,307.2h-8.533a1.067,1.067,0,1,0,0,2.133h8.533a1.067,1.067,0,1,0,0-2.133Z" transform="translate(-181.317 -268.799)"/>
        <path id="Path_537" data-name="Path 537" d="M214.384,358.4h-8.533a1.067,1.067,0,1,0,0,2.133h8.533a1.067,1.067,0,1,0,0-2.133Z" transform="translate(-181.317 -313.599)"/>
        <path id="Path_538" data-name="Path 538" d="M329.381,327.965l-2.133-2.133a4.008,4.008,0,0,0-5.775,0L307.5,339.807a1.068,1.068,0,0,0-.313.754v6.4a1.067,1.067,0,0,0,1.067,1.067h6.4a1.068,1.068,0,0,0,.754-.312l13.976-13.976A3.908,3.908,0,0,0,329.381,327.965Zm-9.288,2.262,1.692,1.692-9.267,9.267-1.692-1.692Zm-10.776,15.667V341l4.892,4.892Zm6.4-1.508-1.692-1.692,9.267-9.267,1.692,1.692Zm12.155-12.155-1.379,1.379-4.892-4.892,1.379-1.379a1.819,1.819,0,0,1,2.758,0l2.133,2.133A1.793,1.793,0,0,1,327.872,332.231Z" transform="translate(-270.917 -284.027)"/>
        <path id="Path_539" data-name="Path 539" d="M50.118,61.867H22.384a3.2,3.2,0,0,1-3.2-3.2V5.333a3.2,3.2,0,0,1,3.2-3.2H56.077L66.431,12.488a1.067,1.067,0,1,0,1.508-1.508L57.272.313A1.064,1.064,0,0,0,56.518,0H22.384a5.339,5.339,0,0,0-5.333,5.333V58.668A5.34,5.34,0,0,0,22.384,64H50.118a1.067,1.067,0,0,0,0-2.134Z" transform="translate(-17.051)"/>
        <path id="Path_540" data-name="Path 540" d="M214.384,409.6h-8.533a1.067,1.067,0,1,0,0,2.133h8.533a1.067,1.067,0,1,0,0-2.133Z" transform="translate(-181.317 -358.399)"/>
        <path id="Path_541" data-name="Path 541" d="M110.918,154.667a1.067,1.067,0,0,0-1.067-1.067h-6.4a1.067,1.067,0,0,0-1.067,1.067v6.4a1.067,1.067,0,0,0,1.067,1.067h6.4a1.067,1.067,0,0,0,1.067-1.067ZM108.785,160h-4.267v-4.267h4.267Z" transform="translate(-91.718 -134.4)"/>
        <path id="Path_542" data-name="Path 542" d="M103.451,366.934h6.4a1.067,1.067,0,0,0,1.067-1.067v-6.4a1.067,1.067,0,0,0-1.067-1.067h-6.4a1.067,1.067,0,0,0-1.067,1.067v6.4A1.067,1.067,0,0,0,103.451,366.934Zm1.067-6.4h4.267V364.8h-4.267Z" transform="translate(-91.717 -313.6)"/>
        <path id="Path_543" data-name="Path 543" d="M104.828,264.217a1.068,1.068,0,0,0,.754.313.866.866,0,0,0,.106-.005,1.064,1.064,0,0,0,.782-.469l4.267-6.4a1.067,1.067,0,1,0-1.775-1.184l-3.545,5.317-1.214-1.213a1.067,1.067,0,0,0-1.508,1.508Z" transform="translate(-91.715 -223.996)"/>
      </g>
    </g>
  </g>
</svg>
