<svg id="index-page-bg" xmlns="http://www.w3.org/2000/svg" xmlns:xlink="http://www.w3.org/1999/xlink" viewBox="0 0 1920 671">
  <defs>
    <style>
      .cls-1 {
        fill: url(#linear-gradient);
      }

      .cls-2 {
        fill: #fff;
      }

      .cls-3 {
        fill: #cecece;
      }

      .cls-4 {
        fill: #e0e0e0;
      }

      .cls-5 {
        fill: #ededed;
      }

      .cls-6 {
        fill: #939393;
      }

      .cls-7 {
        fill: #9e9e9e;
      }

      .cls-38, .cls-8 {
        fill: #020202;
      }

      .cls-8 {
        opacity: 0.08;
      }

      .cls-9 {
        fill: #777;
      }

      .cls-10 {
        fill: #bfbfbf;
      }

      .cls-11 {
        fill: #e6e7e9;
      }

      .cls-12 {
        fill: #b8b9bb;
      }

      .cls-13 {
        fill: #fefcfe;
      }

      .cls-14 {
        fill: #42210b;
      }

      .cls-15 {
        fill: #6b3e1f;
      }

      .cls-16 {
        fill: #1b1f21;
      }

      .cls-17 {
        fill: #475059;
      }

      .cls-18 {
        fill: #f9f9f7;
      }

      .cls-19 {
        fill: #f4ba2e;
      }

      .cls-20 {
        fill: #ffdb92;
      }

      .cls-21 {
        fill: #ffcc5a;
      }

      .cls-22 {
        fill: #2d3538;
      }

      .cls-23 {
        fill: #cecfd1;
      }

      .cls-24, .cls-26 {
        fill: #231f20;
      }

      .cls-24 {
        opacity: 0.15;
      }

      .cls-25 {
        fill: #f6f4f4;
      }

      .cls-26 {
        opacity: 0.2;
      }

      .cls-27 {
        fill: #dedede;
      }

      .cls-28 {
        fill: #3a4349;
      }

      .cls-29 {
        fill: #252b2d;
      }

      .cls-30 {
        fill: #414a51;
      }

      .cls-31 {
        fill: #323b3f;
      }

      .cls-32 {
        fill: #8e6040;
      }

      .cls-33 {
        fill: #512d10;
      }

      .cls-34 {
        fill: #eaeaea;
      }

      .cls-35 {
        fill: #b2b2b2;
      }

      .cls-36 {
        fill: #848484;
      }

      .cls-37 {
        fill: #3f4d50;
      }

      .cls-38 {
        opacity: 0.26;
      }

      .cls-39 {
        fill: #edbe85;
      }

      .cls-40 {
        fill: #fff2e6;
      }

      .cls-41 {
        fill: #e2e2e2;
      }

      .cls-42 {
        fill: #31373a;
      }
    </style>
    <linearGradient id="linear-gradient" x1="0.5" y1="0.558" x2="0.5" y2="1" gradientUnits="objectBoundingBox">
      <stop offset="0" stop-color="#2575fc"/>
      <stop offset="1" stop-color="#3511cb"/>
    </linearGradient>
  </defs>
  <rect id="Rectangle_1" data-name="Rectangle 1" class="cls-1" width="1920" height="671"/>
  <g id="Group_4" data-name="Group 4" transform="translate(0.013 124.695)">
    <rect id="Rectangle_2" data-name="Rectangle 2" class="cls-2" width="1.968" height="23.715" transform="translate(178.808 393) rotate(111.691)"/>
    <rect id="Rectangle_3" data-name="Rectangle 3" class="cls-3" width="1.968" height="1.265" transform="matrix(0.37, -0.929, 0.929, 0.37, 155.979, 386.044)"/>
    <path id="Path_1" data-name="Path 1" class="cls-2" d="M1067.844,2711.352l2.067-5.173a.27.27,0,0,0-.155-.351l-6.157-2.446a.269.269,0,0,0-.351.155l-2.066,5.173a.269.269,0,0,0,.155.351l6.157,2.447A.27.27,0,0,0,1067.844,2711.352Z" transform="translate(-911.992 -2323.396)"/>
    <g id="Group_1" data-name="Group 1" transform="translate(133.976 372.25)">
      <path id="Path_2" data-name="Path 2" class="cls-2" d="M970.215,2664.593l2.812-7.071a1.494,1.494,0,0,0-.829-1.926l-12.384-4.92a1.494,1.494,0,0,0-1.926.83l-2.811,7.071a1.493,1.493,0,0,0,.829,1.926l12.385,4.92A1.483,1.483,0,0,0,970.215,2664.593Z" transform="translate(-954.706 -2650.278)"/>
      <path id="Path_3" data-name="Path 3" class="cls-4" d="M967.219,2664a1.765,1.765,0,0,1-.647-.126l-12.384-4.92a1.769,1.769,0,0,1-.97-.942,1.731,1.731,0,0,1-.014-1.35l2.812-7.071a1.768,1.768,0,0,1,.942-.97,1.731,1.731,0,0,1,1.35-.014l12.384,4.92a1.746,1.746,0,0,1,.984,2.277l-2.811,7.071A1.8,1.8,0,0,1,967.219,2664Zm-9.573-14.943a1.182,1.182,0,0,0-1.111.759l-2.811,7.071a1.211,1.211,0,0,0,.014.914,1.17,1.17,0,0,0,.661.633l12.384,4.92a1.208,1.208,0,0,0,1.56-.675l2.811-7.071a1.208,1.208,0,0,0-.675-1.56l-12.384-4.92A1.762,1.762,0,0,0,957.646,2649.054Z" transform="translate(-953.074 -2648.474)"/>
    </g>
    <path id="Path_4" data-name="Path 4" class="cls-5" d="M189.351,2201.921,170.8,2248.577a6.67,6.67,0,0,0,3.725,8.659l91.808,36.521a6.67,6.67,0,0,0,8.659-3.726l18.556-46.656a6.67,6.67,0,0,0-3.725-8.659L198.01,2198.2A6.67,6.67,0,0,0,189.351,2201.921Z" transform="translate(-146.378 -1888.833)"/>
    <rect id="Rectangle_4" data-name="Rectangle 4" class="cls-6" width="59.912" height="87.295" transform="matrix(0.37, -0.929, 0.929, 0.37, 34.336, 368.879)"/>
    <path id="Path_5" data-name="Path 5" class="cls-7" d="M917.049,2610.1l-6.171,15.519a.942.942,0,0,0,.52,1.223h0a.942.942,0,0,0,1.223-.52l6.171-15.519a.943.943,0,0,0-.52-1.223h0A.937.937,0,0,0,917.049,2610.1Z" transform="translate(-782.774 -2242.736)"/>
    <path id="Path_6" data-name="Path 6" class="cls-8" d="M390.811,2234.626,298.99,2198.12a6.684,6.684,0,0,0-8.659,3.753l-2.53,6.354,95.772,62.6,10.937-27.51A6.683,6.683,0,0,0,390.811,2234.626Z" transform="translate(-247.343 -1888.771)"/>
    <rect id="Rectangle_5" data-name="Rectangle 5" class="cls-4" width="1.982" height="7.197" transform="matrix(0.37, -0.929, 0.929, 0.37, 140.599, 379.903)"/>
    <path id="Path_7" data-name="Path 7" class="cls-2" d="M535.636,2777.395c2.193-3.866,5.482-6.944,8.716-9.7a56.569,56.569,0,0,1,5.623-4.315,26.588,26.588,0,0,1,1.645-7.647,52.956,52.956,0,0,1,6.48-11.6c2.094-3.008,4.639-6.382,8.237-8.238,3.542-1.828,8.1-2.137,12.82-.872a47.839,47.839,0,0,1,7.549,3.022c1.546.731,3.008,1.406,4.47,1.982,6.34,2.46,12.89,4.99,19.68,6,5.257.773,12.919.9,19.582-2.952a37.8,37.8,0,0,0,8.94-7.788l-4.316-1.743.731-1.828,4.976,2.01c.169-.183.337-.38.506-.576a62.554,62.554,0,0,1,8.547-8.491c1.631-1.251,4.147-2.9,7.071-2.867a8.158,8.158,0,0,1,7.38,5.412,9.348,9.348,0,0,1-1.715,8.968,11.09,11.09,0,0,1-8.266,3.81c-3.177.042-6.185-1.167-8.828-2.249l-4.133-1.673c-2.924,3.261-6.031,6.48-9.9,8.715-7.155,4.133-15.294,4.021-20.847,3.191-7.015-1.04-13.664-3.613-20.1-6.115-1.518-.59-3.078-1.321-4.6-2.024a46.482,46.482,0,0,0-7.225-2.91c-4.245-1.139-8.294-.886-11.415.717-3.191,1.659-5.468,4.667-7.521,7.619a50.2,50.2,0,0,0-6.241,11.147,25.237,25.237,0,0,0-1.406,5.707c.52-.281,1.054-.562,1.6-.8a18.232,18.232,0,0,1,11.372-1.6,11.959,11.959,0,0,1,8.828,7.422,10.274,10.274,0,0,1-1.856,9.784,11.534,11.534,0,0,1-13.087,2.727,15.33,15.33,0,0,1-8.434-10.515,17.892,17.892,0,0,1-.492-3.388c-1.532,1.083-2.98,2.263-4.358,3.43-3.092,2.629-6.241,5.567-8.28,9.165-2.193,3.866-2.727,8.041-1.476,11.443.2.534.436,1.054.689,1.616a16.628,16.628,0,0,1,1.054,2.727,5.175,5.175,0,0,1-1.265,5.229l-1.279-1.49a3.307,3.307,0,0,0,.633-3.247,14.493,14.493,0,0,0-.942-2.39c-.253-.562-.534-1.153-.759-1.757a14.969,14.969,0,0,1,.45-10.669A19.62,19.62,0,0,1,535.636,2777.395Zm36.366-9.6a10.007,10.007,0,0,0-7.394-6.129,16.256,16.256,0,0,0-10.121,1.462,25.065,25.065,0,0,0-2.572,1.377,17.8,17.8,0,0,0,.478,4.189,13.339,13.339,0,0,0,7.3,9.165c3.753,1.6,8.406.647,10.824-2.193a8.011,8.011,0,0,0,1.321-2.207A8.264,8.264,0,0,0,572,2767.794Zm90.416-39.895a6.244,6.244,0,0,0-5.553-4.1c-1.757-.014-3.613.759-5.848,2.46a60.112,60.112,0,0,0-8.266,8.224l-.042.042,3.486,1.406c2.474,1,5.286,2.136,8.069,2.108a9.049,9.049,0,0,0,6.776-3.093,7.638,7.638,0,0,0,1.223-2.052A7.108,7.108,0,0,0,662.418,2727.9Z" transform="translate(-458.293 -2339.24)"/>
    <path id="Path_8" data-name="Path 8" class="cls-2" d="M373.6,3273.614c-6.031-1.293-10.318-3.29-13.481-6.255-3.936-3.7-5.707-9.082-4.5-13.58q-.633.485-1.265.928a76.86,76.86,0,0,1-26.905,12.244l-.45-1.912a74.717,74.717,0,0,0,26.217-11.935c2.587-1.855,5.356-4.062,5.356-6.705l1.968-.1a7.086,7.086,0,0,1-1.532,4.948,11.261,11.261,0,0,0-1.335,2.559c-1.476,4.512.843,9.334,3.809,12.117,2.9,2.727,6.888,4.555,12.553,5.778Z" transform="translate(-281.033 -2790.012)"/>
    <ellipse id="Ellipse_1" data-name="Ellipse 1" class="cls-9" cx="8.631" cy="1.799" rx="8.631" ry="1.799" transform="translate(22.073 472.845) rotate(-21.696)"/>
    <path id="Path_9" data-name="Path 9" class="cls-2" d="M157.361,3332.556c-1.8.562-2.868,3.725-1.026,4.977a40.378,40.378,0,0,0,5.792,3.219l-3.332,1.321a1.831,1.831,0,0,0-.942,2.4l.07.183a1.8,1.8,0,0,0,2.319,1.083l23.49-9.348-1.462-3.669-9.742,3.88c.225-.745,1.42-4.681,1.771-5.707a3.124,3.124,0,0,0-.155-2.46,2.948,2.948,0,0,0-.787-.9,2.254,2.254,0,0,0-2.5-.352C168.508,3328.719,159.357,3331.924,157.361,3332.556Z" transform="translate(-133.534 -2859.315)"/>
    <path id="Path_10" data-name="Path 10" class="cls-10" d="M340.631,3344.354l.815,2.052a.891.891,0,0,1-.492,1.152l-10.979,4.372-1.476-3.711,10.979-4.372A.9.9,0,0,1,340.631,3344.354Z" transform="translate(-282.322 -2873.797)"/>
    <ellipse id="Ellipse_2" data-name="Ellipse 2" class="cls-9" cx="1.799" cy="8.631" rx="1.799" ry="8.631" transform="translate(104.855 478.547) rotate(-68.302)"/>
    <path id="Path_11" data-name="Path 11" class="cls-2" d="M695.971,3394.857c1.8.563,2.868,3.726,1.026,4.976a40.357,40.357,0,0,1-5.792,3.219l3.331,1.322a1.831,1.831,0,0,1,.942,2.4l-.07.183a1.8,1.8,0,0,1-2.32,1.082l-23.49-9.348,1.462-3.669,9.742,3.879c-.225-.745-1.42-4.681-1.771-5.707a3.123,3.123,0,0,1,.155-2.46,2.947,2.947,0,0,1,.787-.9,2.254,2.254,0,0,1,2.5-.351C684.838,3391.019,693.975,3394.224,695.971,3394.857Z" transform="translate(-575.473 -2912.858)"/>
    <path id="Path_12" data-name="Path 12" class="cls-10" d="M606.626,3406.664l-.815,2.053a.891.891,0,0,0,.492,1.152l10.979,4.372,1.476-3.711-10.979-4.372A.9.9,0,0,0,606.626,3406.664Z" transform="translate(-520.596 -2927.35)"/>
    <g id="Group_2" data-name="Group 2" transform="translate(230.018 360.741)">
      <path id="Path_13" data-name="Path 13" class="cls-11" d="M1756.851,2632.468a54.642,54.642,0,0,1-54.669,54.669c-.8,0-1.574-.014-2.361-.056a54.666,54.666,0,1,1,57.03-54.612Z" transform="translate(-1645.925 -2576.226)"/>
      <path id="Path_14" data-name="Path 14" class="cls-2" d="M1692.543,2566.6a56.241,56.241,0,0,0-2.418,112.429c.59.014,1.167.042,1.757.042l-1.6-1.6-1.645-1.658a53.1,53.1,0,1,1,57.016-52.954,51.006,51.006,0,0,1-.394,6.382l1.406,1.406,1.364,1.364c.056-.323.1-.646.155-.984a57.014,57.014,0,0,0,.591-8.167A56.274,56.274,0,0,0,1692.543,2566.6Z" transform="translate(-1636.3 -2566.6)"/>
    </g>
    <path id="Path_15" data-name="Path 15" class="cls-7" d="M2068.006,3015.041a56.513,56.513,0,0,1-55.484,47.092c-.225,0-.45,0-.675-.014l-1.6-1.6-1.645-1.659c.534.042,1.082.07,1.617.1.759.028,1.532.056,2.306.056a53.345,53.345,0,0,0,52.546-45.391c.056-.436.126-.885.168-1.321l1.406,1.406Z" transform="translate(-1726.247 -2588.906)"/>
    <path id="Path_16" data-name="Path 16" class="cls-12" d="M1771.054,2847.09c-.042.436-.1.886-.169,1.322a53.356,53.356,0,0,1-52.546,45.39c-.773,0-1.532-.014-2.305-.056-.548-.014-1.082-.056-1.616-.1l-48.118-48.582,77.708-24.966Z" transform="translate(-1432.065 -2423.724)"/>
    <path id="Path_17" data-name="Path 17" class="cls-13" d="M1652.9,2945.719h18.977a.06.06,0,0,0,.056-.056v-7.717a.75.75,0,0,0-.745-.745H1653a4.311,4.311,0,0,0-4.3,4.3h0A4.208,4.208,0,0,0,1652.9,2945.719Z" transform="translate(-1416.938 -2524.363)"/>
    <circle id="Ellipse_3" data-name="Ellipse 3" class="cls-13" cx="32.753" cy="32.753" r="32.753" transform="translate(253.508 384.231)"/>
    <path id="Path_18" data-name="Path 18" class="cls-14" d="M1898.25,2801.432a27.048,27.048,0,1,1-2.938-12.243A26.718,26.718,0,0,1,1898.25,2801.432Z" transform="translate(-1584.957 -2384.448)"/>
    <path id="Path_19" data-name="Path 19" class="cls-15" d="M1917.243,2830.739a21,21,0,1,1-2.938-12.244A26.722,26.722,0,0,1,1917.243,2830.739Z" transform="translate(-1603.95 -2413.754)"/>
    <path id="Path_20" data-name="Path 20" class="cls-13" d="M1818.868,206.336,1751.843,264.6,1654.3,152.371,1721.325,94.1a9.661,9.661,0,0,1,13.635.956l5.271,6.059.211.253,4.99,5.735.211.253,4.765,5.482.211.253,4.765,5.482.211.253,4.765,5.482.211.253,59.237,68.149a9.858,9.858,0,0,1,1.11,1.56l.169.3A9.649,9.649,0,0,1,1818.868,206.336Z" transform="translate(-1421.751 -78.888)"/>
    <ellipse id="Ellipse_4" data-name="Ellipse 4" class="cls-16" cx="1.982" cy="2.502" rx="1.982" ry="2.502" transform="matrix(0.755, -0.656, 0.656, 0.755, 238.856, 73.965)"/>
    <ellipse id="Ellipse_5" data-name="Ellipse 5" class="cls-16" cx="1.982" cy="2.502" rx="1.982" ry="2.502" transform="matrix(0.755, -0.656, 0.656, 0.755, 249.09, 85.745)"/>
    <ellipse id="Ellipse_6" data-name="Ellipse 6" class="cls-16" cx="1.982" cy="2.502" rx="1.982" ry="2.502" transform="matrix(0.755, -0.656, 0.656, 0.755, 258.717, 97.202)"/>
    <ellipse id="Ellipse_7" data-name="Ellipse 7" class="cls-16" cx="1.982" cy="2.502" rx="1.982" ry="2.502" transform="matrix(0.755, -0.656, 0.656, 0.755, 269.399, 108.596)"/>
    <ellipse id="Ellipse_8" data-name="Ellipse 8" class="cls-16" cx="1.982" cy="2.502" rx="1.982" ry="2.502" transform="translate(279.244 119.911) rotate(-40.994)"/>
    <ellipse id="Ellipse_9" data-name="Ellipse 9" class="cls-16" cx="1.982" cy="2.502" rx="1.982" ry="2.502" transform="matrix(0.755, -0.656, 0.656, 0.755, 289.035, 131.184)"/>
    <ellipse id="Ellipse_10" data-name="Ellipse 10" class="cls-16" cx="1.982" cy="2.502" rx="1.982" ry="2.502" transform="translate(298.882 142.499) rotate(-40.994)"/>
    <ellipse id="Ellipse_11" data-name="Ellipse 11" class="cls-16" cx="1.982" cy="2.502" rx="1.982" ry="2.502" transform="matrix(0.755, -0.656, 0.656, 0.755, 309.531, 154.775)"/>
    <ellipse id="Ellipse_12" data-name="Ellipse 12" class="cls-16" cx="1.982" cy="2.502" rx="1.982" ry="2.502" transform="matrix(0.755, -0.656, 0.656, 0.755, 319.574, 166.326)"/>
    <path id="Path_21" data-name="Path 21" class="cls-17" d="M1657.451,516.3l-10.29,8.94a.485.485,0,0,1-.675-.042h0a.485.485,0,0,1,.042-.675l10.29-8.94a.485.485,0,0,1,.675.042h0A.484.484,0,0,1,1657.451,516.3Z" transform="translate(-1414.935 -443.06)"/>
    <path id="Path_22" data-name="Path 22" class="cls-17" d="M1668.351,530.2l-10.29,8.94a.485.485,0,0,1-.675-.042h0a.485.485,0,0,1,.042-.675l10.29-8.94a.485.485,0,0,1,.675.042h0A.484.484,0,0,1,1668.351,530.2Z" transform="translate(-1424.303 -455.006)"/>
    <path id="Path_23" data-name="Path 23" class="cls-17" d="M1729.751,599.9l-10.29,8.94a.485.485,0,0,1-.675-.042h0a.485.485,0,0,1,.042-.675l10.29-8.94a.485.485,0,0,1,.675.042h0A.472.472,0,0,1,1729.751,599.9Z" transform="translate(-1477.072 -514.908)"/>
    <path id="Path_24" data-name="Path 24" class="cls-17" d="M1740.951,612.8l-10.29,8.94a.485.485,0,0,1-.675-.042h0a.485.485,0,0,1,.042-.675l10.29-8.94a.486.486,0,0,1,.675.042h0A.472.472,0,0,1,1740.951,612.8Z" transform="translate(-1486.698 -525.995)"/>
    <path id="Path_25" data-name="Path 25" class="cls-17" d="M1798.251,681.5l-10.29,8.94a.485.485,0,0,1-.675-.042h0a.485.485,0,0,1,.042-.675l10.29-8.94a.485.485,0,0,1,.675.042h0A.471.471,0,0,1,1798.251,681.5Z" transform="translate(-1535.943 -585.037)"/>
    <path id="Path_26" data-name="Path 26" class="cls-17" d="M1809.451,694.4l-10.29,8.94a.485.485,0,0,1-.675-.042h0a.485.485,0,0,1,.042-.675l10.29-8.94a.485.485,0,0,1,.675.042h0A.472.472,0,0,1,1809.451,694.4Z" transform="translate(-1545.569 -596.124)"/>
    <path id="Path_27" data-name="Path 27" class="cls-17" d="M1874.151,762.5l-10.29,8.94a.485.485,0,0,1-.675-.042h0a.485.485,0,0,1,.042-.675l10.29-8.94a.486.486,0,0,1,.675.042h0A.471.471,0,0,1,1874.151,762.5Z" transform="translate(-1601.174 -654.651)"/>
    <path id="Path_28" data-name="Path 28" class="cls-17" d="M1885.351,775.4l-10.29,8.94a.485.485,0,0,1-.674-.042h0a.485.485,0,0,1,.042-.675l10.29-8.94a.485.485,0,0,1,.675.042h0A.484.484,0,0,1,1885.351,775.4Z" transform="translate(-1610.8 -665.737)"/>
    <path id="Path_29" data-name="Path 29" class="cls-17" d="M1944.051,842.9l-10.29,8.94a.485.485,0,0,1-.675-.042h0a.485.485,0,0,1,.042-.675l10.29-8.94a.485.485,0,0,1,.675.042h0A.485.485,0,0,1,1944.051,842.9Z" transform="translate(-1661.248 -723.749)"/>
    <path id="Path_30" data-name="Path 30" class="cls-17" d="M1955.251,855.7l-10.29,8.94a.485.485,0,0,1-.675-.042h0a.485.485,0,0,1,.042-.675l10.29-8.94a.485.485,0,0,1,.675.042h0A.483.483,0,0,1,1955.251,855.7Z" transform="translate(-1670.873 -734.75)"/>
    <path id="Path_31" data-name="Path 31" class="cls-17" d="M2013.951,923.3l-10.29,8.94a.485.485,0,0,1-.675-.042h0a.485.485,0,0,1,.042-.675l10.29-8.94a.485.485,0,0,1,.675.042h0A.472.472,0,0,1,2013.951,923.3Z" transform="translate(-1721.322 -792.847)"/>
    <path id="Path_32" data-name="Path 32" class="cls-17" d="M2025.151,936.1l-10.29,8.94a.485.485,0,0,1-.675-.042h0a.485.485,0,0,1,.042-.675l10.29-8.94a.485.485,0,0,1,.675.042h0A.471.471,0,0,1,2025.151,936.1Z" transform="translate(-1730.947 -803.848)"/>
    <path id="Path_33" data-name="Path 33" class="cls-17" d="M2083.751,1003.6l-10.29,8.94a.485.485,0,0,1-.675-.042h0a.485.485,0,0,1,.042-.675l10.29-8.94a.486.486,0,0,1,.675.042h0A.472.472,0,0,1,2083.751,1003.6Z" transform="translate(-1781.31 -861.859)"/>
    <path id="Path_34" data-name="Path 34" class="cls-17" d="M2094.951,1016.4l-10.29,8.94a.485.485,0,0,1-.674-.042h0a.485.485,0,0,1,.042-.675l10.29-8.94a.486.486,0,0,1,.675.042h0A.483.483,0,0,1,2094.951,1016.4Z" transform="translate(-1790.936 -872.86)"/>
    <path id="Path_35" data-name="Path 35" class="cls-17" d="M2159.75,1091l-10.29,8.941a.485.485,0,0,1-.675-.042h0a.485.485,0,0,1,.042-.675l10.29-8.941a.486.486,0,0,1,.675.042h0A.471.471,0,0,1,2159.75,1091Z" transform="translate(-1846.626 -936.973)"/>
    <path id="Path_36" data-name="Path 36" class="cls-17" d="M2170.951,1103.9l-10.29,8.94a.485.485,0,0,1-.675-.042h0a.485.485,0,0,1,.042-.675l10.29-8.94a.485.485,0,0,1,.675.042h0A.484.484,0,0,1,2170.951,1103.9Z" transform="translate(-1856.252 -948.06)"/>
    <path id="Path_37" data-name="Path 37" class="cls-17" d="M2231.051,1173.2l-10.29,8.94a.485.485,0,0,1-.675-.042h0a.485.485,0,0,1,.042-.675l10.29-8.94a.486.486,0,0,1,.675.042h0A.483.483,0,0,1,2231.051,1173.2Z" transform="translate(-1907.903 -1007.618)"/>
    <path id="Path_38" data-name="Path 38" class="cls-17" d="M2242.251,1186.1l-10.29,8.94a.485.485,0,0,1-.675-.042h0a.485.485,0,0,1,.042-.675l10.29-8.94a.485.485,0,0,1,.675.042h0A.484.484,0,0,1,2242.251,1186.1Z" transform="translate(-1917.529 -1018.704)"/>
    <rect id="Rectangle_6" data-name="Rectangle 6" class="cls-16" width="98.372" height="0.323" transform="matrix(0.755, -0.656, 0.656, 0.755, 249.412, 92.756)"/>
    <rect id="Rectangle_7" data-name="Rectangle 7" class="cls-16" width="98.372" height="0.323" transform="translate(244.232 86.771) rotate(-40.994)"/>
    <rect id="Rectangle_8" data-name="Rectangle 8" class="cls-16" width="98.372" height="0.337" transform="translate(239.674 81.531) rotate(-40.994)"/>
    <rect id="Rectangle_9" data-name="Rectangle 9" class="cls-16" width="98.372" height="0.323" transform="translate(254.413 98.502) rotate(-40.994)"/>
    <rect id="Rectangle_10" data-name="Rectangle 10" class="cls-16" width="98.372" height="0.323" transform="translate(259.402 104.235) rotate(-40.994)"/>
    <rect id="Rectangle_11" data-name="Rectangle 11" class="cls-16" width="98.372" height="0.337" transform="translate(264.391 109.968) rotate(-40.994)"/>
    <rect id="Rectangle_12" data-name="Rectangle 12" class="cls-16" width="98.471" height="0.337" transform="translate(269.381 115.706) rotate(-40.994)"/>
    <rect id="Rectangle_13" data-name="Rectangle 13" class="cls-16" width="98.471" height="0.337" transform="translate(274.359 121.448) rotate(-40.994)"/>
    <rect id="Rectangle_14" data-name="Rectangle 14" class="cls-16" width="98.471" height="0.337" transform="translate(279.123 126.934) rotate(-40.994)"/>
    <rect id="Rectangle_15" data-name="Rectangle 15" class="cls-16" width="98.471" height="0.337" transform="translate(284.337 132.914) rotate(-40.994)"/>
    <rect id="Rectangle_16" data-name="Rectangle 16" class="cls-16" width="98.471" height="0.337" transform="translate(289.1 138.4) rotate(-40.994)"/>
    <rect id="Rectangle_17" data-name="Rectangle 17" class="cls-16" width="98.471" height="0.337" transform="translate(293.873 143.897) rotate(-40.994)"/>
    <rect id="Rectangle_18" data-name="Rectangle 18" class="cls-16" width="98.471" height="0.337" transform="translate(299.067 149.875) rotate(-40.994)"/>
    <rect id="Rectangle_19" data-name="Rectangle 19" class="cls-16" width="98.471" height="0.337" transform="translate(304.496 156.111) rotate(-40.994)"/>
    <rect id="Rectangle_20" data-name="Rectangle 20" class="cls-16" width="98.471" height="0.337" transform="translate(309.7 162.1) rotate(-40.994)"/>
    <rect id="Rectangle_21" data-name="Rectangle 21" class="cls-16" width="98.471" height="0.337" transform="translate(314.678 167.842) rotate(-40.994)"/>
    <rect id="Rectangle_22" data-name="Rectangle 22" class="cls-16" width="98.471" height="0.337" transform="translate(319.892 173.822) rotate(-40.994)"/>
    <path id="Path_39" data-name="Path 39" class="cls-16" d="M2386.764,821.5l-74.053,64.368-.211-.253,74.11-64.41A2.9,2.9,0,0,1,2386.764,821.5Z" transform="translate(-1987.427 -705.813)"/>
    <rect id="Rectangle_23" data-name="Rectangle 23" class="cls-18" width="90.261" height="107.496" transform="translate(81.488 140.181) rotate(-137.561)"/>
    <rect id="Rectangle_24" data-name="Rectangle 24" class="cls-18" width="90.261" height="107.496" transform="translate(583.53 145.118) rotate(66.94)"/>
    <path id="Path_40" data-name="Path 40" class="cls-19" d="M898.066,104.755l-10.81,61.557c-.07.38.379.773.984.872l5.89,1.04c.6.112,1.153-.112,1.223-.492l10.81-61.557a.29.29,0,0,0,0-.155l-8.041-1.42A.687.687,0,0,0,898.066,104.755Z" transform="translate(-762.526 -89.947)"/>
    <path id="Path_41" data-name="Path 41" class="cls-20" d="M919.3,173.9l2.39.422c.6.112,1.153-.112,1.223-.492l10.81-61.557a.288.288,0,0,0,0-.155l-2.39-.422a.39.39,0,0,1,.014.127v.042l-10.824,61.542C920.453,173.791,919.9,174,919.3,173.9Z" transform="translate(-790.072 -96.049)"/>
    <path id="Path_42" data-name="Path 42" class="cls-21" d="M918.291,108.441,907.481,170c-.07.38.056.717.267.759l2.081.366c.211.042.436-.239.506-.619l10.81-61.557V108.9c0-.042.014-.084.014-.112l-2.84-.492A.814.814,0,0,1,918.291,108.441Z" transform="translate(-779.897 -93.127)"/>
    <path id="Path_43" data-name="Path 43" class="cls-5" d="M972.655,29.012S971.418,15.095,970.968,15,964.6,27.606,964.6,27.606Z" transform="translate(-829.004 -12.939)"/>
    <path id="Path_44" data-name="Path 44" class="cls-22" d="M996.235,19.12s-.506-4.92-.745-4.92c-.309,0-2.39,4.358-2.39,4.358Z" transform="translate(-853.498 -12.255)"/>
    <path id="Path_45" data-name="Path 45" class="cls-23" d="M2510.441,1619.339a8.262,8.262,0,0,0-11.007,3.781l-24.9,50.929a8.261,8.261,0,0,0,3.781,11.007L2549,1719.595a8.261,8.261,0,0,0,11.007-3.781l24.9-50.929a8.261,8.261,0,0,0-3.782-11.007Z" transform="translate(-2125.977 -1391.045)"/>
    <path id="Path_46" data-name="Path 46" class="cls-24" d="M2503.519,1698.752l-29.618-21.128a10.962,10.962,0,0,1,1.195-2.924l11.935-23.9s22.168-30.49,22.253-30.6l28.339,14.577,44.322,29.647-.576,1.434-70.412,36.464Z" transform="translate(-2126.139 -1392.496)"/>
    <path id="Path_47" data-name="Path 47" class="cls-25" d="M2534.619,1608.116a8.259,8.259,0,0,0-11.527,1.659l-33.976,45.377a8.259,8.259,0,0,0,1.659,11.527l62.962,47.148a8.259,8.259,0,0,0,11.527-1.659l33.976-45.376a8.258,8.258,0,0,0-1.659-11.527Z" transform="translate(-2137.812 -1380.708)"/>
    <path id="Path_48" data-name="Path 48" class="cls-26" d="M2923.226,2229.32l-15.154-9.812a2.237,2.237,0,0,0-3.4.3c-1.617,1.968-7.071,13.987-7.071,13.987Z" transform="translate(-2490.278 -1906.983)"/>
    <path id="Path_49" data-name="Path 49" class="cls-27" d="M2923.612,2233.864l-13.453-9.756a2.237,2.237,0,0,0-3.4.3c-1.616,1.968-9.657,13.3-9.657,13.3Z" transform="translate(-2489.848 -1910.936)"/>
    <path id="Path_50" data-name="Path 50" class="cls-24" d="M2809.815,1912.593a1.143,1.143,0,0,1-.225-1.6l26.09-34.876a1.143,1.143,0,0,1,1.6-.225h0a1.143,1.143,0,0,1,.225,1.6l-26.09,34.876a1.143,1.143,0,0,1-1.6.225Z" transform="translate(-2414.442 -1612.045)"/>
    <path id="Path_51" data-name="Path 51" class="cls-24" d="M2837.515,1883.3a1.144,1.144,0,0,1-.225-1.6l18.513-24.586a1.143,1.143,0,0,1,1.6-.225h0a1.143,1.143,0,0,1,.225,1.6l-18.513,24.586a1.156,1.156,0,0,1-1.6.225Z" transform="translate(-2438.248 -1595.716)"/>
    <path id="Path_52" data-name="Path 52" class="cls-24" d="M2754.615,1872.493a1.144,1.144,0,0,1-.225-1.6l26.09-34.876a1.143,1.143,0,0,1,1.6-.225h0a1.144,1.144,0,0,1,.225,1.6l-26.091,34.876a1.156,1.156,0,0,1-1.6.225Z" transform="translate(-2367.001 -1577.582)"/>
    <path id="Path_53" data-name="Path 53" class="cls-24" d="M2795.415,1836.258a1.144,1.144,0,0,1-.225-1.6l16-21.24a1.143,1.143,0,0,1,1.6-.225h0a1.143,1.143,0,0,1,.225,1.6l-16,21.24a1.144,1.144,0,0,1-1.6.225Z" transform="translate(-2402.066 -1558.158)"/>
    <path id="Path_54" data-name="Path 54" class="cls-24" d="M2744.915,1819.178a1.144,1.144,0,0,1-.225-1.6l19.02-25.261a1.144,1.144,0,0,1,1.6-.225h0a1.144,1.144,0,0,1,.225,1.6l-19.033,25.261a1.127,1.127,0,0,1-1.589.225Z" transform="translate(-2358.665 -1540.025)"/>
    <path id="Path_55" data-name="Path 55" class="cls-24" d="M2663.315,1806.093a1.143,1.143,0,0,1-.225-1.6l26.09-34.876a1.143,1.143,0,0,1,1.6-.225h0a1.143,1.143,0,0,1,.225,1.6l-26.09,34.876a1.145,1.145,0,0,1-1.6.225Z" transform="translate(-2288.535 -1520.516)"/>
    <path id="Path_56" data-name="Path 56" class="cls-24" d="M2634.915,1785.393a1.144,1.144,0,0,1-.225-1.6l26.09-34.876a1.144,1.144,0,0,1,1.6-.225h0a1.144,1.144,0,0,1,.225,1.6l-26.1,34.876a1.129,1.129,0,0,1-1.589.225Z" transform="translate(-2264.128 -1502.725)"/>
    <path id="Path_57" data-name="Path 57" class="cls-22" d="M3302.786,2127.041l-12.75,61.177c-.084.38.352.787.956.914l5.862,1.223c.6.126,1.167-.071,1.237-.45l12.75-61.177a.291.291,0,0,0,0-.155l-8-1.673A.425.425,0,0,0,3302.786,2127.041Z" transform="translate(-2827.54 -1827.968)"/>
    <path id="Path_58" data-name="Path 58" class="cls-17" d="M3321.7,2196.981l2.375.492c.6.126,1.167-.071,1.237-.45l12.75-61.177a.287.287,0,0,0,0-.155l-2.376-.492a.379.379,0,0,1,0,.126v.042l-12.75,61.177C3322.853,2196.911,3322.3,2197.108,3321.7,2196.981Z" transform="translate(-2854.762 -1835.101)"/>
    <path id="Path_59" data-name="Path 59" class="cls-28" d="M3322.877,2131.155l-12.75,61.177c-.084.38.028.717.239.759l2.066.436c.211.042.45-.225.534-.6l12.75-61.177v-.042a.353.353,0,0,0,.014-.113l-2.825-.59A.6.6,0,0,0,3322.877,2131.155Z" transform="translate(-2844.792 -1831.492)"/>
    <path id="Path_60" data-name="Path 60" class="cls-15" d="M3389.113,2052.667s-.787-13.959-1.251-14.071-6.762,12.4-6.762,12.4Z" transform="translate(-2905.812 -1752.076)"/>
    <path id="Path_61" data-name="Path 61" class="cls-25" d="M3414.621,2042.848s-.352-4.934-.59-4.948c-.31-.014-2.531,4.273-2.531,4.273Z" transform="translate(-2931.938 -1751.479)"/>
    <path id="Path_62" data-name="Path 62" class="cls-29" d="M3124.856,2041.749l36.014,51.07c.225.309.815.281,1.321-.084l4.892-3.444c.506-.352.745-.9.52-1.209l-36.014-51.07a.427.427,0,0,0-.113-.113l-6.677,4.709A.41.41,0,0,0,3124.856,2041.749Z" transform="translate(-2685.54 -1750.619)"/>
    <path id="Path_63" data-name="Path 63" class="cls-30" d="M3193.807,2090.7l1.982-1.406c.506-.352.745-.9.52-1.209l-36.014-51.07a.427.427,0,0,0-.113-.113l-1.982,1.406c.028.028.071.056.084.084l.028.028,36.014,51.07C3194.538,2089.8,3194.313,2090.331,3193.807,2090.7Z" transform="translate(-2714.245 -1750.62)"/>
    <path id="Path_64" data-name="Path 64" class="cls-31" d="M3141.584,2048.585l36.015,51.07c.225.31.548.464.717.337l1.729-1.209c.183-.126.14-.478-.084-.8l-36.015-51.07c-.014-.014-.014-.028-.028-.028-.028-.028-.042-.056-.07-.084l-2.348,1.659Z" transform="translate(-2699.893 -1759.128)"/>
    <path id="Path_65" data-name="Path 65" class="cls-32" d="M3104.094,1983.755s-10.74-8.94-11.133-8.687,4.442,13.4,4.442,13.4Z" transform="translate(-2658.158 -1697.475)"/>
    <path id="Path_66" data-name="Path 66" class="cls-31" d="M3096.6,1977.3s-3.852-3.107-4.02-2.938c-.211.211,1.406,4.765,1.406,4.765Z" transform="translate(-2657.837 -1696.865)"/>
    <path id="Path_67" data-name="Path 67" class="cls-28" d="M1234.287,714.758c-1.1,3.486-41.736,42.172-80.463,75.192-40.147,34.229-140.994,88.968-140.994,88.968-69.625,27.847-182.42,41.145-182.42,41.145L758.9,918.546,760.278,797.3l185.513,4.33c30.209-19.666,108.367-40.077,129.65-48.413,3.472-1.363,5.44-2.123,5.44-2.123,10.515-9.011,24.052-9.545,31.46-13.678,10.079-5.609,19.877-9.615,28.41-17.389,8.111-7.394,20.453-11.513,29.267-17.009,13.031-8.111,21.943-16.292,27.06-18.64,1.7-.773,2.643-1.181,2.643-1.181C1235.777,684.184,1234.287,714.758,1234.287,714.758Z" transform="translate(-652.22 -587.212)"/>
    <path id="Path_68" data-name="Path 68" class="cls-16" d="M2851.82,691.6c-36.2,36.352-166.086,148.149-166.086,148.149L2684.3,791.49c3.472-1.363,53.881-35.284,53.881-35.284,13.622-7.169,34.047-18.4,41.6-22.773,14.634-8.476,38.925-22.224,49.341-28.4S2851.82,691.6,2851.82,691.6Z" transform="translate(-2306.962 -594.431)"/>
    <path id="Path_69" data-name="Path 69" class="cls-17" d="M1258.983,902.586l-40.077-6.972s-100.3-24.3-139.377-28.691c0,0-94.675-11.906-127.5-14.732,0,0-181.957-8.35-208.483-10.346L728,766.526,798.778,731.2s78.875,13.579,159.662,29.183c64.227,12.413,129.678,26.1,157.652,35.27l73.069,24.277c7.872,2.615,42.031,15.154,50.817,20.481,5.665,3.43,12.511,2.84,19.821,13.495a74.08,74.08,0,0,1,23.757,23.447s7.816-1.954,8.153,3.36S1277.89,902.586,1258.983,902.586Z" transform="translate(-625.664 -628.465)"/>
    <path id="Path_70" data-name="Path 70" class="cls-16" d="M4060.941,193.512c0,30.448-31.362,43.507-47.542,48.216a81.819,81.819,0,0,0-20.271,9.011l-19.961,12.4s-1.49-29.1-33.569-32.079l55.288-46.248,12.173-10.177c8.9-7.8,23.518-15.182,34.777-11.5a25.839,25.839,0,0,1,13.973,10.3h0C4058.946,178.162,4060.941,184.656,4060.941,193.512Z" transform="translate(-3385.801 -139.415)"/>
    <path id="Path_71" data-name="Path 71" class="cls-33" d="M500.747,931.72s37.73,7.254,39.4-1.476c18.794-98.105,2.024-240.744,2.024-240.744L493.1,693.267Z" transform="translate(-423.784 -592.627)"/>
    <path id="Path_72" data-name="Path 72" class="cls-22" d="M2648.634,1032.423C2562.056,986.413,2344,950.961,2344,950.961l3.261-12.061c64.227,12.413,129.678,26.1,157.652,35.27l73.069,24.277c7.872,2.615,41.286,13.551,50.466,18.19C2636.686,1020.8,2646.68,1028.29,2648.634,1032.423Z" transform="translate(-2014.499 -806.968)"/>
    <path id="Path_73" data-name="Path 73" class="cls-34" d="M969.1,984.83V788.788A10.391,10.391,0,0,1,979.488,778.4H1110.22a10.391,10.391,0,0,1,10.388,10.388V984.83a10.391,10.391,0,0,1-10.388,10.388H979.488A10.4,10.4,0,0,1,969.1,984.83Z" transform="translate(-832.872 -669.03)"/>
    <path id="Path_74" data-name="Path 74" class="cls-35" d="M1427,1056.979V875.022a3.924,3.924,0,0,1,3.922-3.922h69.864a3.923,3.923,0,0,1,3.922,3.922v181.957a3.924,3.924,0,0,1-3.922,3.922h-69.864A3.924,3.924,0,0,1,1427,1056.979Z" transform="translate(-1226.404 -748.699)"/>
    <path id="Path_75" data-name="Path 75" class="cls-10" d="M1014.9,1367.609V1302.3a2.7,2.7,0,0,1,2.7-2.7h45.953a2.7,2.7,0,0,1,2.7,2.7v65.31a2.7,2.7,0,0,1-2.7,2.7H1017.6A2.709,2.709,0,0,1,1014.9,1367.609Z" transform="translate(-872.233 -1116.964)"/>
    <g id="Group_3" data-name="Group 3" transform="translate(204.504 125.972)">
      <path id="Path_76" data-name="Path 76" class="cls-2" d="M1901.1,906.312v-7.83a1.98,1.98,0,0,1,1.982-1.982h3.247a1.98,1.98,0,0,1,1.982,1.982v7.83a1.98,1.98,0,0,1-1.982,1.982h-3.247A1.98,1.98,0,0,1,1901.1,906.312Z" transform="translate(-1838.363 -896.5)"/>
      <path id="Path_77" data-name="Path 77" class="cls-2" d="M1901.1,1000.212v-7.83a1.98,1.98,0,0,1,1.982-1.982h3.247a1.98,1.98,0,0,1,1.982,1.982v7.83a1.98,1.98,0,0,1-1.982,1.982h-3.247A1.989,1.989,0,0,1,1901.1,1000.212Z" transform="translate(-1838.363 -977.2)"/>
      <path id="Path_78" data-name="Path 78" class="cls-2" d="M1901.1,1094.112v-7.83a1.98,1.98,0,0,1,1.982-1.982h3.247a1.98,1.98,0,0,1,1.982,1.982v7.83a1.98,1.98,0,0,1-1.982,1.982h-3.247A2,2,0,0,1,1901.1,1094.112Z" transform="translate(-1838.363 -1057.901)"/>
      <path id="Path_79" data-name="Path 79" class="cls-2" d="M1901.1,1187.912v-7.83a1.98,1.98,0,0,1,1.982-1.982h3.247a1.98,1.98,0,0,1,1.982,1.982v7.83a1.98,1.98,0,0,1-1.982,1.982h-3.247A1.98,1.98,0,0,1,1901.1,1187.912Z" transform="translate(-1838.363 -1138.515)"/>
      <path id="Path_80" data-name="Path 80" class="cls-2" d="M1901.1,1281.812v-7.83a1.98,1.98,0,0,1,1.982-1.982h3.247a1.98,1.98,0,0,1,1.982,1.982v7.83a1.98,1.98,0,0,1-1.982,1.982h-3.247A2,2,0,0,1,1901.1,1281.812Z" transform="translate(-1838.363 -1219.215)"/>
      <path id="Path_81" data-name="Path 81" class="cls-2" d="M1901.1,1375.7v-7.816a1.98,1.98,0,0,1,1.982-1.982h3.247a1.98,1.98,0,0,1,1.982,1.982v7.83a1.98,1.98,0,0,1-1.982,1.982h-3.247A2,2,0,0,1,1901.1,1375.7Z" transform="translate(-1838.363 -1299.916)"/>
      <path id="Path_82" data-name="Path 82" class="cls-2" d="M1901.1,1469.512v-7.83a1.98,1.98,0,0,1,1.982-1.982h3.247a1.98,1.98,0,0,1,1.982,1.982v7.83a1.98,1.98,0,0,1-1.982,1.982h-3.247A2,2,0,0,1,1901.1,1469.512Z" transform="translate(-1838.363 -1380.53)"/>
      <path id="Path_83" data-name="Path 83" class="cls-2" d="M1901.1,1563.312v-7.83a1.98,1.98,0,0,1,1.982-1.982h3.247a1.98,1.98,0,0,1,1.982,1.982v7.83a1.98,1.98,0,0,1-1.982,1.982h-3.247A1.98,1.98,0,0,1,1901.1,1563.312Z" transform="translate(-1838.363 -1461.144)"/>
      <path id="Path_84" data-name="Path 84" class="cls-2" d="M1901.1,1657.212v-7.83a1.979,1.979,0,0,1,1.982-1.982h3.247a1.98,1.98,0,0,1,1.982,1.982v7.83a1.98,1.98,0,0,1-1.982,1.982h-3.247A1.979,1.979,0,0,1,1901.1,1657.212Z" transform="translate(-1838.363 -1541.845)"/>
      <path id="Path_85" data-name="Path 85" class="cls-2" d="M1901.1,1751.112v-7.83a1.98,1.98,0,0,1,1.982-1.982h3.247a1.98,1.98,0,0,1,1.982,1.982v7.83a1.98,1.98,0,0,1-1.982,1.982h-3.247A2,2,0,0,1,1901.1,1751.112Z" transform="translate(-1838.363 -1622.545)"/>
      <path id="Path_86" data-name="Path 86" class="cls-2" d="M1901.1,1844.912v-7.83a1.98,1.98,0,0,1,1.982-1.982h3.247a1.98,1.98,0,0,1,1.982,1.982v7.83a1.98,1.98,0,0,1-1.982,1.982h-3.247A1.98,1.98,0,0,1,1901.1,1844.912Z" transform="translate(-1838.363 -1703.159)"/>
      <path id="Path_87" data-name="Path 87" class="cls-2" d="M1901.1,1938.812v-7.83a1.98,1.98,0,0,1,1.982-1.982h3.247a1.98,1.98,0,0,1,1.982,1.982v7.83a1.98,1.98,0,0,1-1.982,1.982h-3.247A2,2,0,0,1,1901.1,1938.812Z" transform="translate(-1838.363 -1783.859)"/>
      <path id="Path_88" data-name="Path 88" class="cls-2" d="M1901.1,2032.7v-7.816a1.98,1.98,0,0,1,1.982-1.982h3.247a1.98,1.98,0,0,1,1.982,1.982v7.83a1.98,1.98,0,0,1-1.982,1.982h-3.247A2,2,0,0,1,1901.1,2032.7Z" transform="translate(-1838.363 -1864.56)"/>
      <path id="Path_89" data-name="Path 89" class="cls-2" d="M1901.1,2126.512v-7.83a1.98,1.98,0,0,1,1.982-1.982h3.247a1.98,1.98,0,0,1,1.982,1.982v7.83a1.98,1.98,0,0,1-1.982,1.982h-3.247A1.989,1.989,0,0,1,1901.1,2126.512Z" transform="translate(-1838.363 -1945.174)"/>
      <path id="Path_90" data-name="Path 90" class="cls-2" d="M1817.5,909.834v-9.8a.438.438,0,0,1,.436-.436h9.8a.438.438,0,0,1,.436.436v9.8a.438.438,0,0,1-.436.436h-9.8A.438.438,0,0,1,1817.5,909.834Z" transform="translate(-1766.515 -899.164)"/>
      <path id="Path_91" data-name="Path 91" class="cls-2" d="M1729.6,1047.534v-9.8a.438.438,0,0,1,.436-.436h9.8a.438.438,0,0,1,.436.436v9.8a.438.438,0,0,1-.436.436h-9.8A.421.421,0,0,1,1729.6,1047.534Z" transform="translate(-1690.971 -1017.508)"/>
      <path id="Path_92" data-name="Path 92" class="cls-2" d="M1641.6,1067.834v-9.8a.438.438,0,0,1,.436-.436h9.8a.438.438,0,0,1,.436.436v9.8a.438.438,0,0,1-.436.436h-9.8A.421.421,0,0,1,1641.6,1067.834Z" transform="translate(-1615.341 -1034.954)"/>
      <path id="Path_93" data-name="Path 93" class="cls-2" d="M1553.7,1115.134v-9.8a.438.438,0,0,1,.436-.436h9.8a.438.438,0,0,1,.436.436v9.8a.438.438,0,0,1-.436.436h-9.8A.429.429,0,0,1,1553.7,1115.134Z" transform="translate(-1539.797 -1075.605)"/>
      <path id="Path_94" data-name="Path 94" class="cls-2" d="M1456.1,909.806v-9.742a.468.468,0,0,1,.464-.464h11.105a.468.468,0,0,1,.464.464v9.742a.468.468,0,0,1-.464.464h-11.105A.459.459,0,0,1,1456.1,909.806Z" transform="translate(-1455.917 -899.164)"/>
      <path id="Path_95" data-name="Path 95" class="cls-2" d="M1456.1,1002.306v-9.742a.468.468,0,0,1,.464-.464h11.105a.468.468,0,0,1,.464.464v9.742a.468.468,0,0,1-.464.464h-11.105A.45.45,0,0,1,1456.1,1002.306Z" transform="translate(-1455.917 -978.661)"/>
      <path id="Path_96" data-name="Path 96" class="cls-2" d="M1456.1,1092.006v-9.742a.468.468,0,0,1,.464-.464h11.105a.468.468,0,0,1,.464.464v9.742a.468.468,0,0,1-.464.464h-11.105A.45.45,0,0,1,1456.1,1092.006Z" transform="translate(-1455.917 -1055.752)"/>
      <path id="Path_97" data-name="Path 97" class="cls-2" d="M1456.1,1185.682v-12.848a.534.534,0,0,1,.534-.534H1467.6a.534.534,0,0,1,.534.534v12.848a.534.534,0,0,1-.534.534h-10.965A.534.534,0,0,1,1456.1,1185.682Z" transform="translate(-1455.917 -1133.53)"/>
      <path id="Path_98" data-name="Path 98" class="cls-2" d="M1456.1,1747.982v-12.848a.534.534,0,0,1,.534-.534H1467.6a.534.534,0,0,1,.534.534v12.848a.534.534,0,0,1-.534.534h-10.965A.534.534,0,0,1,1456.1,1747.982Z" transform="translate(-1455.917 -1616.786)"/>
      <path id="Path_99" data-name="Path 99" class="cls-2" d="M1456.1,1860.865v-9.6a.468.468,0,0,1,.464-.464h11.105a.468.468,0,0,1,.464.464v9.6a.468.468,0,0,1-.464.464h-11.105A.468.468,0,0,1,1456.1,1860.865Z" transform="translate(-1455.917 -1716.652)"/>
      <path id="Path_100" data-name="Path 100" class="cls-2" d="M1456.1,1346.218v-59.293a1.128,1.128,0,0,1,1.125-1.125h9.784a1.128,1.128,0,0,1,1.125,1.125v59.293a1.128,1.128,0,0,1-1.125,1.124h-9.784A1.128,1.128,0,0,1,1456.1,1346.218Z" transform="translate(-1455.917 -1231.075)"/>
      <path id="Path_101" data-name="Path 101" class="cls-2" d="M1553.7,1205.634v-9.8a.438.438,0,0,1,.436-.436h9.8a.438.438,0,0,1,.436.436v9.8a.438.438,0,0,1-.436.436h-9.8A.438.438,0,0,1,1553.7,1205.634Z" transform="translate(-1539.797 -1153.383)"/>
      <path id="Path_102" data-name="Path 102" class="cls-2" d="M1553.7,1296.12v-9.784a.438.438,0,0,1,.436-.436h9.8a.438.438,0,0,1,.436.436v9.8a.438.438,0,0,1-.436.436h-9.8A.441.441,0,0,1,1553.7,1296.12Z" transform="translate(-1539.797 -1231.161)"/>
      <path id="Path_103" data-name="Path 103" class="cls-2" d="M1553.7,1386.534v-9.8a.438.438,0,0,1,.436-.436h9.8a.438.438,0,0,1,.436.436v9.8a.438.438,0,0,1-.436.436h-9.8A.438.438,0,0,1,1553.7,1386.534Z" transform="translate(-1539.797 -1308.854)"/>
      <path id="Path_104" data-name="Path 104" class="cls-2" d="M1553.7,1477.034v-9.8a.438.438,0,0,1,.436-.436h9.8a.438.438,0,0,1,.436.436v9.8a.438.438,0,0,1-.436.436h-9.8A.438.438,0,0,1,1553.7,1477.034Z" transform="translate(-1539.797 -1386.632)"/>
      <path id="Path_105" data-name="Path 105" class="cls-2" d="M1553.7,1567.434v-9.8a.438.438,0,0,1,.436-.436h9.8a.438.438,0,0,1,.436.436v9.8a.438.438,0,0,1-.436.436h-9.8A.421.421,0,0,1,1553.7,1567.434Z" transform="translate(-1539.797 -1464.324)"/>
      <path id="Path_106" data-name="Path 106" class="cls-2" d="M1553.7,1657.934v-9.8a.438.438,0,0,1,.436-.436h9.8a.438.438,0,0,1,.436.436v9.8a.438.438,0,0,1-.436.436h-9.8A.438.438,0,0,1,1553.7,1657.934Z" transform="translate(-1539.797 -1542.102)"/>
      <path id="Path_107" data-name="Path 107" class="cls-2" d="M1553.7,1748.334v-9.8a.438.438,0,0,1,.436-.436h9.8a.438.438,0,0,1,.436.436v9.8a.438.438,0,0,1-.436.436h-9.8A.421.421,0,0,1,1553.7,1748.334Z" transform="translate(-1539.797 -1619.795)"/>
      <path id="Path_108" data-name="Path 108" class="cls-2" d="M1553.7,1838.834v-9.8a.438.438,0,0,1,.436-.436h9.8a.438.438,0,0,1,.436.436v9.8a.438.438,0,0,1-.436.436h-9.8A.438.438,0,0,1,1553.7,1838.834Z" transform="translate(-1539.797 -1697.573)"/>
      <path id="Path_109" data-name="Path 109" class="cls-2" d="M1454.8,1947.966v-7.451a1.722,1.722,0,0,1,1.715-1.715h2.769a1.722,1.722,0,0,1,1.715,1.715v7.451a1.722,1.722,0,0,1-1.715,1.715h-2.769A1.7,1.7,0,0,1,1454.8,1947.966Z" transform="translate(-1454.8 -1792.282)"/>
      <path id="Path_110" data-name="Path 110" class="cls-2" d="M1454.8,2038.766v-7.45a1.722,1.722,0,0,1,1.715-1.715h2.769a1.722,1.722,0,0,1,1.715,1.715v7.45a1.722,1.722,0,0,1-1.715,1.715h-2.769A1.713,1.713,0,0,1,1454.8,2038.766Z" transform="translate(-1454.8 -1870.318)"/>
      <path id="Path_111" data-name="Path 111" class="cls-2" d="M1504.2,2038.766v-7.45a1.722,1.722,0,0,1,1.715-1.715h2.769a1.722,1.722,0,0,1,1.715,1.715v7.45a1.722,1.722,0,0,1-1.715,1.715h-2.769A1.722,1.722,0,0,1,1504.2,2038.766Z" transform="translate(-1497.256 -1870.318)"/>
      <path id="Path_112" data-name="Path 112" class="cls-2" d="M1454.8,2129.465v-7.45a1.722,1.722,0,0,1,1.715-1.715h2.769a1.722,1.722,0,0,1,1.715,1.715v7.45a1.722,1.722,0,0,1-1.715,1.715h-2.769A1.713,1.713,0,0,1,1454.8,2129.465Z" transform="translate(-1454.8 -1948.268)"/>
      <path id="Path_113" data-name="Path 113" class="cls-2" d="M1641.6,1159.134v-9.8a.438.438,0,0,1,.436-.436h9.8a.438.438,0,0,1,.436.436v9.8a.438.438,0,0,1-.436.436h-9.8A.421.421,0,0,1,1641.6,1159.134Z" transform="translate(-1615.341 -1113.42)"/>
      <path id="Path_114" data-name="Path 114" class="cls-2" d="M1641.6,1250.434v-9.8a.438.438,0,0,1,.436-.436h9.8a.438.438,0,0,1,.436.436v9.8a.438.438,0,0,1-.436.436h-9.8A.421.421,0,0,1,1641.6,1250.434Z" transform="translate(-1615.341 -1191.885)"/>
      <path id="Path_115" data-name="Path 115" class="cls-2" d="M1641.6,1341.734v-9.8a.438.438,0,0,1,.436-.436h9.8a.438.438,0,0,1,.436.436v9.8a.438.438,0,0,1-.436.436h-9.8A.421.421,0,0,1,1641.6,1341.734Z" transform="translate(-1615.341 -1270.351)"/>
      <path id="Path_116" data-name="Path 116" class="cls-2" d="M1641.6,1432.534v-9.8a.438.438,0,0,1,.436-.436h9.8a.438.438,0,0,1,.436.436v9.8a.438.438,0,0,1-.436.436h-9.8A.438.438,0,0,1,1641.6,1432.534Z" transform="translate(-1615.341 -1348.387)"/>
      <path id="Path_117" data-name="Path 117" class="cls-2" d="M1641.6,1523.834v-9.8a.438.438,0,0,1,.436-.436h9.8a.438.438,0,0,1,.436.436v9.8a.438.438,0,0,1-.436.436h-9.8A.438.438,0,0,1,1641.6,1523.834Z" transform="translate(-1615.341 -1426.853)"/>
      <path id="Path_118" data-name="Path 118" class="cls-2" d="M1641.6,1611.234v-9.8a.438.438,0,0,1,.436-.436h9.8a.438.438,0,0,1,.436.436v9.8a.438.438,0,0,1-.436.436h-9.8A.438.438,0,0,1,1641.6,1611.234Z" transform="translate(-1615.341 -1501.967)"/>
      <path id="Path_119" data-name="Path 119" class="cls-2" d="M1641.6,1701.634v-9.8a.438.438,0,0,1,.436-.436h9.8a.438.438,0,0,1,.436.436v9.8a.438.438,0,0,1-.436.436h-9.8A.421.421,0,0,1,1641.6,1701.634Z" transform="translate(-1615.341 -1579.659)"/>
      <path id="Path_120" data-name="Path 120" class="cls-2" d="M1641.6,1792.134v-9.8a.438.438,0,0,1,.436-.436h9.8a.438.438,0,0,1,.436.436v9.8a.438.438,0,0,1-.436.436h-9.8A.438.438,0,0,1,1641.6,1792.134Z" transform="translate(-1615.341 -1657.438)"/>
      <path id="Path_121" data-name="Path 121" class="cls-2" d="M1641.6,1882.034v-9.8a.438.438,0,0,1,.436-.436h9.8a.438.438,0,0,1,.436.436v9.8a.438.438,0,0,1-.436.436h-9.8A.438.438,0,0,1,1641.6,1882.034Z" transform="translate(-1615.341 -1734.7)"/>
      <path id="Path_122" data-name="Path 122" class="cls-2" d="M1641.6,1971.934v-9.8a.438.438,0,0,1,.436-.436h9.8a.438.438,0,0,1,.436.436v9.8a.438.438,0,0,1-.436.436h-9.8A.438.438,0,0,1,1641.6,1971.934Z" transform="translate(-1615.341 -1811.963)"/>
      <path id="Path_123" data-name="Path 123" class="cls-2" d="M1553.7,1928.434v-9.8a.438.438,0,0,1,.436-.436h9.8a.438.438,0,0,1,.436.436v9.8a.438.438,0,0,1-.436.436h-9.8A.438.438,0,0,1,1553.7,1928.434Z" transform="translate(-1539.797 -1774.578)"/>
      <path id="Path_124" data-name="Path 124" class="cls-2" d="M1641.6,2074.511V2055.6a.6.6,0,0,1,.6-.6h9.461a.6.6,0,0,1,.6.6v18.907a.6.6,0,0,1-.6.6H1642.2A.609.609,0,0,1,1641.6,2074.511Z" transform="translate(-1615.341 -1892.147)"/>
      <path id="Path_125" data-name="Path 125" class="cls-2" d="M1553.7,2033.762V2008.4a.7.7,0,0,1,.7-.7h9.278a.7.7,0,0,1,.7.7v25.359a.7.7,0,0,1-.7.7H1554.4A.7.7,0,0,1,1553.7,2033.762Z" transform="translate(-1539.797 -1851.496)"/>
      <path id="Path_126" data-name="Path 126" class="cls-2" d="M1641.6,919.322V900.2a.6.6,0,0,1,.6-.6h9.461a.6.6,0,0,1,.6.6v19.118a.6.6,0,0,1-.6.6H1642.2A.6.6,0,0,1,1641.6,919.322Z" transform="translate(-1615.341 -899.164)"/>
      <path id="Path_127" data-name="Path 127" class="cls-2" d="M1553.7,924.528V898.8a.7.7,0,0,1,.7-.7h9.264a.7.7,0,0,1,.7.7v25.725a.7.7,0,0,1-.7.7H1554.4A.7.7,0,0,1,1553.7,924.528Z" transform="translate(-1539.797 -897.875)"/>
      <path id="Path_128" data-name="Path 128" class="cls-2" d="M1729.6,1138.434v-9.8a.438.438,0,0,1,.436-.436h9.8a.438.438,0,0,1,.436.436v9.8a.438.438,0,0,1-.436.436h-9.8A.438.438,0,0,1,1729.6,1138.434Z" transform="translate(-1690.971 -1095.63)"/>
      <path id="Path_129" data-name="Path 129" class="cls-2" d="M1729.6,1228.734v-9.8a.438.438,0,0,1,.436-.436h9.8a.438.438,0,0,1,.436.436v9.8a.438.438,0,0,1-.436.436h-9.8A.438.438,0,0,1,1729.6,1228.734Z" transform="translate(-1690.971 -1173.236)"/>
      <path id="Path_130" data-name="Path 130" class="cls-2" d="M1729.6,1319.534v-9.8a.438.438,0,0,1,.436-.436h9.8a.438.438,0,0,1,.436.436v9.8a.438.438,0,0,1-.436.436h-9.8A.438.438,0,0,1,1729.6,1319.534Z" transform="translate(-1690.971 -1251.272)"/>
      <path id="Path_131" data-name="Path 131" class="cls-2" d="M1729.6,1410.334v-9.8a.438.438,0,0,1,.436-.436h9.8a.438.438,0,0,1,.436.436v9.8a.438.438,0,0,1-.436.436h-9.8A.421.421,0,0,1,1729.6,1410.334Z" transform="translate(-1690.971 -1329.308)"/>
      <path id="Path_132" data-name="Path 132" class="cls-2" d="M1729.6,1500.634v-9.8a.438.438,0,0,1,.436-.436h9.8a.438.438,0,0,1,.436.436v9.8a.438.438,0,0,1-.436.436h-9.8A.438.438,0,0,1,1729.6,1500.634Z" transform="translate(-1690.971 -1406.914)"/>
      <path id="Path_133" data-name="Path 133" class="cls-2" d="M1729.6,1588.834v-9.8a.438.438,0,0,1,.436-.436h9.8a.438.438,0,0,1,.436.436v9.8a.438.438,0,0,1-.436.436h-9.8A.421.421,0,0,1,1729.6,1588.834Z" transform="translate(-1690.971 -1482.716)"/>
      <path id="Path_134" data-name="Path 134" class="cls-2" d="M1729.6,1680.434v-9.8a.438.438,0,0,1,.436-.436h9.8a.438.438,0,0,1,.436.436v9.8a.438.438,0,0,1-.436.436h-9.8A.438.438,0,0,1,1729.6,1680.434Z" transform="translate(-1690.971 -1561.44)"/>
      <path id="Path_135" data-name="Path 135" class="cls-2" d="M1729.6,1770.934v-9.8a.438.438,0,0,1,.436-.436h9.8a.438.438,0,0,1,.436.436v9.8a.438.438,0,0,1-.436.436h-9.8A.438.438,0,0,1,1729.6,1770.934Z" transform="translate(-1690.971 -1639.218)"/>
      <path id="Path_136" data-name="Path 136" class="cls-2" d="M1729.6,1859.834v-9.8a.438.438,0,0,1,.436-.436h9.8a.438.438,0,0,1,.436.436v9.8a.438.438,0,0,1-.436.436h-9.8A.421.421,0,0,1,1729.6,1859.834Z" transform="translate(-1690.971 -1715.621)"/>
      <path id="Path_137" data-name="Path 137" class="cls-2" d="M1729.6,1952.534v-9.8a.438.438,0,0,1,.436-.436h9.8a.438.438,0,0,1,.436.436v9.8a.438.438,0,0,1-.436.436h-9.8A.421.421,0,0,1,1729.6,1952.534Z" transform="translate(-1690.971 -1795.29)"/>
      <path id="Path_138" data-name="Path 138" class="cls-2" d="M1729.6,2041.134v-9.8a.438.438,0,0,1,.436-.436h9.8a.438.438,0,0,1,.436.436v9.8a.438.438,0,0,1-.436.436h-9.8A.421.421,0,0,1,1729.6,2041.134Z" transform="translate(-1690.971 -1871.435)"/>
      <path id="Path_139" data-name="Path 139" class="cls-2" d="M1729.6,2132.333v-9.8a.438.438,0,0,1,.436-.436h9.8a.438.438,0,0,1,.436.436v9.8a.438.438,0,0,1-.436.436h-9.8A.42.42,0,0,1,1729.6,2132.333Z" transform="translate(-1690.971 -1949.814)"/>
      <path id="Path_140" data-name="Path 140" class="cls-2" d="M1817.5,1001.934v-9.8a.438.438,0,0,1,.436-.436h9.8a.438.438,0,0,1,.436.436v9.8a.438.438,0,0,1-.436.436h-9.8A.421.421,0,0,1,1817.5,1001.934Z" transform="translate(-1766.515 -978.318)"/>
      <path id="Path_141" data-name="Path 141" class="cls-2" d="M1817.5,1091.334v-9.8a.438.438,0,0,1,.436-.436h9.8a.438.438,0,0,1,.436.436v9.8a.438.438,0,0,1-.436.436h-9.8A.438.438,0,0,1,1817.5,1091.334Z" transform="translate(-1766.515 -1055.151)"/>
      <path id="Path_142" data-name="Path 142" class="cls-2" d="M1817.5,1182.934v-9.8a.438.438,0,0,1,.436-.436h9.8a.438.438,0,0,1,.436.436v9.8a.438.438,0,0,1-.436.436h-9.8A.438.438,0,0,1,1817.5,1182.934Z" transform="translate(-1766.515 -1133.874)"/>
      <path id="Path_143" data-name="Path 143" class="cls-2" d="M1817.5,1272.234v-9.8a.438.438,0,0,1,.436-.436h9.8a.438.438,0,0,1,.436.436v9.8a.438.438,0,0,1-.436.436h-9.8A.438.438,0,0,1,1817.5,1272.234Z" transform="translate(-1766.515 -1210.621)"/>
      <path id="Path_144" data-name="Path 144" class="cls-2" d="M1817.5,1364.334v-9.8a.438.438,0,0,1,.436-.436h9.8a.438.438,0,0,1,.436.436v9.8a.438.438,0,0,1-.436.436h-9.8A.438.438,0,0,1,1817.5,1364.334Z" transform="translate(-1766.515 -1289.774)"/>
      <path id="Path_145" data-name="Path 145" class="cls-2" d="M1817.5,1452.834v-9.8a.438.438,0,0,1,.436-.436h9.8a.438.438,0,0,1,.436.436v9.8a.438.438,0,0,1-.436.436h-9.8A.438.438,0,0,1,1817.5,1452.834Z" transform="translate(-1766.515 -1365.834)"/>
      <path id="Path_146" data-name="Path 146" class="cls-2" d="M1817.5,1544.734v-9.8a.438.438,0,0,1,.436-.436h9.8a.438.438,0,0,1,.436.436v9.8a.438.438,0,0,1-.436.436h-9.8A.429.429,0,0,1,1817.5,1544.734Z" transform="translate(-1766.515 -1444.815)"/>
      <path id="Path_147" data-name="Path 147" class="cls-2" d="M1817.5,1634.134v-9.8a.438.438,0,0,1,.436-.436h9.8a.438.438,0,0,1,.436.436v9.8a.438.438,0,0,1-.436.436h-9.8A.438.438,0,0,1,1817.5,1634.134Z" transform="translate(-1766.515 -1521.648)"/>
      <path id="Path_148" data-name="Path 148" class="cls-2" d="M1817.5,1725.834v-9.8a.438.438,0,0,1,.436-.436h9.8a.438.438,0,0,1,.436.436v9.8a.438.438,0,0,1-.436.436h-9.8A.421.421,0,0,1,1817.5,1725.834Z" transform="translate(-1766.515 -1600.458)"/>
      <path id="Path_149" data-name="Path 149" class="cls-2" d="M1817.5,1817.434v-9.8a.438.438,0,0,1,.436-.436h9.8a.438.438,0,0,1,.436.436v9.8a.438.438,0,0,1-.436.436h-9.8A.438.438,0,0,1,1817.5,1817.434Z" transform="translate(-1766.515 -1679.181)"/>
      <path id="Path_150" data-name="Path 150" class="cls-2" d="M1817.5,1908.12v-9.784a.438.438,0,0,1,.436-.436h9.8a.438.438,0,0,1,.436.436v9.8a.438.438,0,0,1-.436.436h-9.8A.441.441,0,0,1,1817.5,1908.12Z" transform="translate(-1766.515 -1757.131)"/>
      <path id="Path_151" data-name="Path 151" class="cls-2" d="M1817.5,1995.234v-9.8a.438.438,0,0,1,.436-.436h9.8a.438.438,0,0,1,.436.436v9.8a.438.438,0,0,1-.436.436h-9.8A.438.438,0,0,1,1817.5,1995.234Z" transform="translate(-1766.515 -1831.987)"/>
      <path id="Path_152" data-name="Path 152" class="cls-2" d="M1817.5,2091.271v-14.648a1.224,1.224,0,0,1,1.223-1.223h8.223a1.224,1.224,0,0,1,1.223,1.223v14.648a1.224,1.224,0,0,1-1.223,1.223h-8.223A1.215,1.215,0,0,1,1817.5,2091.271Z" transform="translate(-1766.515 -1909.68)"/>
      <path id="Path_153" data-name="Path 153" class="cls-2" d="M1729.6,915.471V900.823a1.224,1.224,0,0,1,1.223-1.223h8.223a1.224,1.224,0,0,1,1.223,1.223v14.648a1.224,1.224,0,0,1-1.223,1.223h-8.223A1.224,1.224,0,0,1,1729.6,915.471Z" transform="translate(-1690.971 -899.164)"/>
    </g>
    <path id="Path_154" data-name="Path 154" class="cls-36" d="M2024.4,1107.313V937.754a1.053,1.053,0,0,1,1.054-1.054h2.46a1.053,1.053,0,0,1,1.054,1.054V1107.3a1.053,1.053,0,0,1-1.054,1.054h-2.46A1.05,1.05,0,0,1,2024.4,1107.313Z" transform="translate(-1739.826 -805.077)"/>
    <path id="Path_155" data-name="Path 155" class="cls-34" d="M2056.9,797.881V592.463a4.642,4.642,0,0,1,2.854-4.3l83.669-32.275a1.185,1.185,0,0,1,1.687,1.11V832.911a1.378,1.378,0,0,1-1.954,1.279l-83.247-31.755A4.958,4.958,0,0,1,2056.9,797.881Z" transform="translate(-1767.757 -477.709)"/>
    <path id="Path_156" data-name="Path 156" class="cls-36" d="M2684.413,833.706,2684.3,554.6a29.939,29.939,0,0,1,2.783,2.446,25.412,25.412,0,0,1,2.221,3.374V827.212s-1.715,2.713-2.221,3.36S2684.413,833.706,2684.413,833.706Z" transform="translate(-2306.962 -476.69)"/>
    <path id="Path_157" data-name="Path 157" class="cls-37" d="M2121.5,865.395V661.481l74.222-26.68V891.92Z" transform="translate(-1823.276 -545.616)"/>
    <path id="Path_158" data-name="Path 158" class="cls-10" d="M2024.4,1107.313V937.74a1.038,1.038,0,0,1,1.04-1.04h.647v171.653h-.647A1.037,1.037,0,0,1,2024.4,1107.313Z" transform="translate(-1739.826 -805.077)"/>
    <path id="Path_159" data-name="Path 159" class="cls-15" d="M.1,707.143V389.9l34,5.061L78.4,412.6a214.95,214.95,0,0,1,16.644,41.16c7.127,24.052,13.4,58.141,11.316,100.959,0,0,2.91,44.533-22.506,125.742Z" transform="translate(-0.086 -335.142)"/>
    <path id="Path_160" data-name="Path 160" class="cls-38" d="M878,1882.3l2.783-.717s-.239-7.774,3.022-10.993c0,0,26.357-27.426,31.095-31.572,0,0,9.067-2.081,7.816,7.38,0,0,.408,1.715-1.574,4.161l-9.868,10.993,44.927-13.3a8.274,8.274,0,0,1,4.456-.112,6.5,6.5,0,0,1,4.948,4.99,5.612,5.612,0,0,1-.7,3.964c-1.04,1.912-2.854,2.544-4.934,3.163l-35.143,11.991,40.105-11.091c2.221-.647,6.34-1.462,8.266-.169a7.772,7.772,0,0,1,3.022,6.171s-.337,4.5-5.735,6.607l-38.376,11.963,31.727-8c2.558-.7,8.7-2.052,10.557.506a7,7,0,0,1,.97,2.685s1.589,3.374-3.008,6.354a24.235,24.235,0,0,1-4.1,1.687l-34.482,11.316,23.644-6.129c2.46-.717,5.412-.717,6.972,1.321a5.029,5.029,0,0,1,1.04,2.418s1.251,5.145-5.145,7.211l-42.186,11.063-9.657,2a26,26,0,0,1-7.8.436,19.259,19.259,0,0,1-5.679-1.378s-3.725-1.448-4.062-2.418l-3.585,1.138Z" transform="translate(-754.578 -1580.384)"/>
    <path id="Path_161" data-name="Path 161" class="cls-39" d="M879.5,1892.5l2.783-.717s-.239-7.774,3.022-10.993c0,0,26.357-27.426,31.095-31.572,0,0,9.067-2.08,7.816,7.38,0,0,.408,1.715-1.575,4.161l-9.868,10.993,44.927-13.3a8.276,8.276,0,0,1,4.456-.113,6.505,6.505,0,0,1,4.948,4.99,5.611,5.611,0,0,1-.7,3.964c-1.04,1.912-2.854,2.545-4.934,3.163l-35.143,11.991,40.105-11.091c2.221-.647,6.34-1.462,8.266-.169a7.772,7.772,0,0,1,3.022,6.171s-.337,4.5-5.735,6.607l-38.376,11.963,31.727-8c2.558-.7,8.7-2.052,10.557.506a7,7,0,0,1,.97,2.685s1.589,3.374-3.008,6.354a24.259,24.259,0,0,1-4.1,1.687l-34.482,11.316,23.644-6.129c2.46-.717,5.412-.717,6.972,1.321a5.029,5.029,0,0,1,1.04,2.418s1.251,5.145-5.145,7.211l-42.186,11.063-9.657,2a25.99,25.99,0,0,1-7.8.436,19.251,19.251,0,0,1-5.679-1.378s-3.725-1.448-4.062-2.418l-3.585,1.139Z" transform="translate(-755.867 -1589.15)"/>
    <rect id="Rectangle_25" data-name="Rectangle 25" class="cls-2" width="4.934" height="44.885" transform="matrix(0.956, -0.292, 0.292, 0.956, 119.31, 299.204)"/>
    <path id="Path_162" data-name="Path 162" class="cls-15" d="M133.361,2156.016l-6.1,1.532s-51.646,14.577-94.76,25.359c-14,3.5-25.936,6.255-32.5,7.493l.014-57.2c21.522-.942,90.627-15.505,90.627-15.505l28.649-7.3,3.093,9.9Z" transform="translate(0 -1813.787)"/>
    <circle id="Ellipse_13" data-name="Ellipse 13" class="cls-2" cx="1.912" cy="1.912" r="1.912" transform="matrix(0.766, -0.643, 0.643, 0.766, 111.343, 342.364)"/>
    <circle id="Ellipse_14" data-name="Ellipse 14" class="cls-2" cx="1.912" cy="1.912" r="1.912" transform="matrix(0.766, -0.643, 0.643, 0.766, 105.383, 344.118)"/>
    <circle id="Ellipse_15" data-name="Ellipse 15" class="cls-2" cx="1.912" cy="1.912" r="1.912" transform="matrix(0.766, -0.643, 0.643, 0.766, 99.308, 345.756)"/>
    <path id="Path_163" data-name="Path 163" class="cls-40" d="M1415.5,1927.815l2.123,7.2a1.156,1.156,0,0,0,1.448.773l3.908-1.251s3.05-1.181,2.376-5.257a5.348,5.348,0,0,0-4.034-4.035,8.858,8.858,0,0,0-3.781.787l-1.265.365A1.137,1.137,0,0,0,1415.5,1927.815Z" transform="translate(-1216.482 -1654.65)"/>
    <path id="Path_164" data-name="Path 164" class="cls-40" d="M1490.928,2018.81l2.038,6.888a1.091,1.091,0,0,0,1.378.731l3.753-1.195s2.91-1.125,2.277-5.033a5.1,5.1,0,0,0-3.866-3.852,8.673,8.673,0,0,0-3.613.745l-1.209.351A1.093,1.093,0,0,0,1490.928,2018.81Z" transform="translate(-1281.307 -1732.951)"/>
    <path id="Path_165" data-name="Path 165" class="cls-40" d="M1500.027,2131.978l1.49,6a.961.961,0,0,0,1.167.689l3.275-.885s2.558-.858,2.151-4.245a4.4,4.4,0,0,0-3.177-3.472,7.251,7.251,0,0,0-3.149.506l-1.054.253A.951.951,0,0,0,1500.027,2131.978Z" transform="translate(-1289.141 -1830.67)"/>
    <path id="Path_166" data-name="Path 166" class="cls-40" d="M1430.627,2254.024l1.448,5.876a.93.93,0,0,0,1.139.675l3.191-.857s2.5-.829,2.108-4.147a4.3,4.3,0,0,0-3.107-3.387,7.309,7.309,0,0,0-3.079.492l-1.026.253A.891.891,0,0,0,1430.627,2254.024Z" transform="translate(-1229.496 -1935.623)"/>
    <path id="Path_167" data-name="Path 167" class="cls-40" d="M1121.472,1859.774l3.4,3.064a.776.776,0,0,0,1.1-.225l2-2.474a3.389,3.389,0,0,0-.112-4.035,2.95,2.95,0,0,0-3.627-.422,8.765,8.765,0,0,0-2.052,2.165l-.661.787A.845.845,0,0,0,1121.472,1859.774Z" transform="translate(-963.652 -1594.509)"/>
    <path id="Path_168" data-name="Path 168" class="cls-38" d="M1030.3,710.511l2.629.689s-.225,7.366,2.868,10.416c0,0,24.965,25.978,29.45,29.9,0,0,8.589,1.968,7.408-6.987,0,0,.394-1.617-1.49-3.95l-9.348-10.416,42.551,12.6a8.008,8.008,0,0,0,4.231.112,6.163,6.163,0,0,0,4.681-4.723,5.3,5.3,0,0,0-.675-3.753c-.984-1.813-2.7-2.4-4.681-3.008l-33.288-11.358,37.983,10.515c2.109.619,6,1.392,7.83.169a7.3,7.3,0,0,0,2.854-5.848s-.323-4.259-5.426-6.255l-36.338-11.33,30.054,7.577c2.418.661,8.238,1.954,10.009-.478a6.606,6.606,0,0,0,.928-2.544s1.5-3.205-2.854-6.017a23.62,23.62,0,0,0-3.894-1.6L1083.113,693.5l22.393,5.806c2.333.675,5.131.675,6.607-1.251a4.775,4.775,0,0,0,.984-2.291s1.195-4.878-4.864-6.832l-39.95-10.473-9.151-1.884a24.189,24.189,0,0,0-7.394-.408,17.951,17.951,0,0,0-5.37,1.307s-3.528,1.364-3.852,2.291l-3.388-1.068Z" transform="translate(-885.469 -581.067)"/>
    <path id="Path_169" data-name="Path 169" class="cls-39" d="M1038.6,705.811l2.629.689s-.225,7.366,2.868,10.416c0,0,24.966,25.978,29.45,29.9,0,0,8.589,1.968,7.408-6.986,0,0,.394-1.617-1.49-3.95l-9.348-10.416,42.551,12.6a8.009,8.009,0,0,0,4.231.112,6.164,6.164,0,0,0,4.681-4.723,5.3,5.3,0,0,0-.675-3.753c-.984-1.813-2.7-2.4-4.681-3.008l-33.287-11.358,37.983,10.515c2.109.618,6,1.392,7.83.169a7.3,7.3,0,0,0,2.854-5.848s-.323-4.259-5.426-6.255l-36.338-11.33,30.054,7.577c2.418.661,8.238,1.954,10.009-.478a6.6,6.6,0,0,0,.928-2.544s1.5-3.2-2.854-6.016a23.612,23.612,0,0,0-3.894-1.6L1091.413,688.8l22.393,5.806c2.333.675,5.131.675,6.607-1.251a4.777,4.777,0,0,0,.984-2.291s1.195-4.878-4.864-6.832l-39.951-10.473-9.151-1.884a24.187,24.187,0,0,0-7.394-.408,17.953,17.953,0,0,0-5.37,1.307s-3.528,1.363-3.852,2.291L1047.428,674Z" transform="translate(-892.602 -577.028)"/>
    <rect id="Rectangle_26" data-name="Rectangle 26" class="cls-2" width="4.934" height="44.885" transform="translate(152.869 91.203) rotate(15.616)"/>
    <path id="Path_170" data-name="Path 170" class="cls-15" d="M140.4,424.333l-10.065-2.558-34.412-8.73v-.084c-1.729-.394-3.486-.787-5.286-1.195C59.785,404.863,21.536,397.2.014,396.26L0,336.7c6.565,1.251,18.851,3.81,32.81,7.478,25.921,6.79,58.084,17.8,82.516,24.783l39.079,9.91Z" transform="translate(0 -289.42)"/>
    <circle id="Ellipse_16" data-name="Ellipse 16" class="cls-2" cx="1.912" cy="1.912" r="1.912" transform="matrix(0.643, -0.766, 0.766, 0.643, 134.531, 94.466)"/>
    <circle id="Ellipse_17" data-name="Ellipse 17" class="cls-2" cx="1.912" cy="1.912" r="1.912" transform="matrix(0.643, -0.766, 0.766, 0.643, 128.568, 92.707)"/>
    <circle id="Ellipse_18" data-name="Ellipse 18" class="cls-2" cx="1.912" cy="1.912" r="1.912" transform="matrix(0.643, -0.766, 0.766, 0.643, 122.49, 91.07)"/>
    <path id="Path_171" data-name="Path 171" class="cls-40" d="M1546.234,1073.344l2.01-6.818a1.087,1.087,0,0,1,1.363-.731l3.711,1.181s2.881,1.11,2.249,4.99a5.09,5.09,0,0,1-3.824,3.823,8.551,8.551,0,0,1-3.585-.745l-1.195-.351A1.1,1.1,0,0,1,1546.234,1073.344Z" transform="translate(-1328.839 -915.983)"/>
    <path id="Path_172" data-name="Path 172" class="cls-40" d="M1617.725,989.89l1.926-6.523a1.027,1.027,0,0,1,1.307-.689l3.542,1.125s2.755,1.068,2.151,4.765a4.866,4.866,0,0,1-3.655,3.655,8.1,8.1,0,0,1-3.43-.7l-1.153-.337A1.046,1.046,0,0,1,1617.725,989.89Z" transform="translate(-1390.28 -844.547)"/>
    <path id="Path_173" data-name="Path 173" class="cls-40" d="M1626.321,891.255l1.406-5.693a.893.893,0,0,1,1.1-.647l3.093.829s2.418.8,2.038,4.02a4.193,4.193,0,0,1-3.008,3.289,6.949,6.949,0,0,1-2.98-.478l-1-.239A.883.883,0,0,1,1626.321,891.255Z" transform="translate(-1397.68 -760.546)"/>
    <path id="Path_174" data-name="Path 174" class="cls-40" d="M1560.649,776.914l1.378-5.567a.866.866,0,0,1,1.068-.633l3.022.815s2.362.787,2,3.936a4.092,4.092,0,0,1-2.938,3.219,6.727,6.727,0,0,1-2.91-.464l-.97-.239A.892.892,0,0,1,1560.649,776.914Z" transform="translate(-1341.244 -662.399)"/>
    <path id="Path_175" data-name="Path 175" class="cls-40" d="M1267.811,1154.535l3.219-2.9a.732.732,0,0,1,1.04.211l1.9,2.348a3.173,3.173,0,0,1-.113,3.809,2.777,2.777,0,0,1-3.43.394,8.182,8.182,0,0,1-1.94-2.052l-.619-.745A.759.759,0,0,1,1267.811,1154.535Z" transform="translate(-1089.425 -989.681)"/>
    <path id="Path_176" data-name="Path 176" class="cls-14" d="M140.489,669.012a94.934,94.934,0,0,0-10.065-2.558l-34.412-8.73v-.084c-1.729-.394-3.486-.787-5.286-1.195C59.871,649.543,21.622,641.881.1,640.94V621.4l103.321,25.528a209.9,209.9,0,0,0,23.068,4.836c12.89,1.954,22.1-9.011,22.1-9.011Z" transform="translate(-0.086 -534.1)"/>
    <path id="Path_177" data-name="Path 177" class="cls-14" d="M125.786,2130.981a33.289,33.289,0,0,0-13.987-5.1c-8.223-1-17.993,1.223-17.993,1.223L.1,2148.974V2133.3c21.522-.942,90.627-15.505,90.627-15.505l28.649-7.3Z" transform="translate(-0.086 -1813.873)"/>
    <path id="Path_178" data-name="Path 178" class="cls-41" d="M3876,630.255l7.437-7.254a9.744,9.744,0,0,1,11.189-1.743c7.773,3.908,20.565,11.935,27.074,24.867a10.206,10.206,0,0,1-3.416,13.045l-7.3,4.92C3910.975,664.09,3905.577,643.173,3876,630.255Z" transform="translate(-3331.142 -533.086)"/>
    <path id="Path_179" data-name="Path 179" class="cls-16" d="M4701.479,1463.872a27.31,27.31,0,0,1-2.91,10.346,2.511,2.511,0,0,1-.14.281c-5.355,10.557-20.917,15.674-32.725,16.447l-4.892.436-1.251.113-81.461,7.254c20.566-24.8,1.055-46.417,1.055-46.417l22.885-5.356a81.755,81.755,0,0,0,20.706-7.956c14.759-8.111,46.178-21.058,67.7.478.52.52,1.012,1.04,1.49,1.546a37.259,37.259,0,0,1,8.125,12.82A24.789,24.789,0,0,1,4701.479,1463.872Z" transform="translate(-3934.546 -1227.045)"/>
    <path id="Path_180" data-name="Path 180" class="cls-41" d="M4505.3,1641.5l10.388-.127a9.748,9.748,0,0,0,9.137-6.677c2.741-8.251,6.1-22.969,1.561-36.717a10.226,10.226,0,0,0-11.639-6.818l-8.772,1.42C4505.988,1592.584,4516.687,1611.125,4505.3,1641.5Z" transform="translate(-3871.98 -1367.382)"/>
    <path id="Path_181" data-name="Path 181" class="cls-41" d="M4388.548,425.406s-4.751-6.593-10.43-12.834c-3.95-4.344-11.78-11.6-11.78-11.6-.745-.815-.886-1.912-.309-2.418l.52-.478c.576-.52,1.546-.169,2.375.534a140.245,140.245,0,0,1,11.766,11.611,123.989,123.989,0,0,1,10.445,12.82c.746,1.139.886,1.912.31,2.418l-.521.478A1.774,1.774,0,0,1,4388.548,425.406Z" transform="translate(-3751.981 -341.957)"/>
    <path id="Path_182" data-name="Path 182" class="cls-41" d="M4435.749,383.906s-4.751-6.593-10.43-12.834c-3.95-4.344-11.78-11.6-11.78-11.6-.745-.815-.886-1.912-.31-2.418l.521-.478c.576-.52,1.546-.169,2.375.534a140.284,140.284,0,0,1,11.766,11.611,123.933,123.933,0,0,1,10.444,12.82c.745,1.139.886,1.912.31,2.418l-.521.478C4437.562,384.96,4436.494,384.721,4435.749,383.906Z" transform="translate(-3792.546 -306.291)"/>
    <path id="Path_183" data-name="Path 183" class="cls-41" d="M4484.648,344.506s-4.751-6.593-10.43-12.834c-3.95-4.344-11.78-11.6-11.78-11.6-.745-.815-.886-1.912-.309-2.418l.52-.478c.576-.52,1.546-.169,2.375.534a140.383,140.383,0,0,1,11.766,11.611,124.026,124.026,0,0,1,10.444,12.82c.745,1.139.885,1.912.31,2.418l-.52.478C4486.462,345.56,4485.394,345.321,4484.648,344.506Z" transform="translate(-3834.572 -272.429)"/>
    <path id="Path_184" data-name="Path 184" class="cls-41" d="M5059.478,1589.481s-.042-8.125-1.04-16.5c-.688-5.834-2.854-16.278-2.854-16.278-.126-1.1.394-2.066,1.153-2.151l.688-.085c.759-.084,1.35.759,1.631,1.828a137.18,137.18,0,0,1,2.839,16.292,123.839,123.839,0,0,1,1.054,16.5c-.056,1.364-.394,2.066-1.153,2.151l-.688.085C5060.336,1591.393,5059.6,1590.577,5059.478,1589.481Z" transform="translate(-4344.894 -1335.996)"/>
    <path id="Path_185" data-name="Path 185" class="cls-41" d="M5121.978,1583.081s-.042-8.125-1.04-16.5c-.689-5.834-2.854-16.278-2.854-16.278-.127-1.1.394-2.066,1.152-2.151l.688-.084c.759-.084,1.35.759,1.631,1.827a137.109,137.109,0,0,1,2.84,16.292,123.839,123.839,0,0,1,1.054,16.5c-.057,1.364-.394,2.066-1.153,2.151l-.688.084C5122.85,1584.993,5122.1,1584.177,5121.978,1583.081Z" transform="translate(-4398.608 -1330.496)"/>
    <path id="Path_186" data-name="Path 186" class="cls-41" d="M5184.678,1579.381s-.042-8.125-1.04-16.5c-.689-5.834-2.854-16.278-2.854-16.278-.127-1.1.394-2.066,1.152-2.151l.689-.084c.759-.084,1.35.759,1.63,1.827a137.121,137.121,0,0,1,2.84,16.292,123.839,123.839,0,0,1,1.054,16.5c-.057,1.364-.394,2.067-1.153,2.151l-.688.084C5185.55,1581.293,5184.819,1580.463,5184.678,1579.381Z" transform="translate(-4452.494 -1327.316)"/>
    <path id="Path_187" data-name="Path 187" class="cls-42" d="M4393.824,173.425h0c-19.286-9.109-60.923,11.386-60.923,11.386l12.173-10.177c8.9-7.8,23.518-15.182,34.777-11.5A25.691,25.691,0,0,1,4393.824,173.425Z" transform="translate(-3723.816 -139.415)"/>
    <path id="Path_188" data-name="Path 188" class="cls-42" d="M5157.6,1880.812l1.252-.112A12.2,12.2,0,0,1,5157.6,1880.812Z" transform="translate(-4432.585 -1616.377)"/>
    <path id="Path_189" data-name="Path 189" class="cls-42" d="M5207.167,1545.615a27.861,27.861,0,0,1-2.91,10.346,2.6,2.6,0,0,1-.14.281c-5.355,10.557-20.917,15.674-32.725,16.447l-4.893.436c26.694-3.064,30.715-49.355,31.123-50.325a37.254,37.254,0,0,1,8.125,12.82A24.683,24.683,0,0,1,5207.167,1545.615Z" transform="translate(-4440.234 -1308.788)"/>
  </g>
</svg>
