<svg xmlns="http://www.w3.org/2000/svg" xmlns:xlink="http://www.w3.org/1999/xlink" viewBox="780 626.8 57.261 76.4">
  <defs>
    <style>
      .cls-1 {
        fill: url(#linear-gradient);
      }
    </style>
    <linearGradient id="linear-gradient" x2="0" y2="1" gradientUnits="objectBoundingBox">
      <stop offset="0" stop-color="#2575fc"/>
      <stop offset="1" stop-color="#3511cb"/>
    </linearGradient>
  </defs>
  <g id="learning_icon" transform="translate(715.871 626.8)">
    <path id="Path_526" data-name="Path 526" class="cls-1" d="M120.271,74.162H114.81l.6-21.558a8.269,8.269,0,0,0-4.922-7.81l-6.368-2.832a1.129,1.129,0,0,0-.117-.044l-.9-.768A56.667,56.667,0,0,0,111.2,38a1.123,1.123,0,0,0,.5-1.5c-.023-.046-2.276-4.753-2.276-15.053V16.669a16.669,16.669,0,0,0-33.338,0v4.785c0,10.3-2.253,15.007-2.274,15.049a1.119,1.119,0,0,0,.5,1.5,56.642,56.642,0,0,0,8.1,3.146l-1.021.872-6.233,2.772a8.269,8.269,0,0,0-4.922,7.81l.6,21.558H65.248a1.119,1.119,0,0,0,0,2.238h55.023a1.119,1.119,0,0,0,0-2.238ZM78.329,16.669a14.431,14.431,0,0,1,28.862,0v4.785c0,8.176,1.354,13,2.074,14.988a57.021,57.021,0,0,1-8.2,2.966l-.4-.339a1.119,1.119,0,0,0-.8-.264V36.022a13.072,13.072,0,0,0,4.856-5.7,11.94,11.94,0,0,0,1-4.477c.129-5.047-4.2-6.326-8.786-7.68-3.841-1.134-8.194-2.419-11.764-5.891a1.119,1.119,0,1,0-1.561,1.6c3.966,3.858,8.8,5.286,12.691,6.434,4.908,1.449,7.264,2.287,7.182,5.475a9.68,9.68,0,0,1-.811,3.63A10.828,10.828,0,0,1,82.11,27.015a2.33,2.33,0,0,0-2.421-1.9,1.258,1.258,0,0,1-.382-.032,1.41,1.41,0,0,1-.978-1.395v-.918A1.356,1.356,0,0,1,79.363,21.4a1.269,1.269,0,0,1,1.248.479,1.623,1.623,0,0,0,2.232.352,9.179,9.179,0,0,0,2.466-2.605,1.119,1.119,0,1,0-1.891-1.2,7.021,7.021,0,0,1-1.437,1.645,3.521,3.521,0,0,0-3.006-.877,3.352,3.352,0,0,0-.647.183V16.669ZM87.9,41.222V37.184a13.038,13.038,0,0,0,9.723,0v4.041l-3.378,4.7-.011.017-.012.016-1.4,2.1a.077.077,0,0,1-.128,0l-1.4-2.1-.012-.016-.011-.017Zm.921,5.114L87.2,47.546a1.273,1.273,0,0,1-1.9-.449l-1.915-3.83,2-1.706Zm11.317-4.775,2,1.706-1.915,3.83a1.273,1.273,0,0,1-1.9.449L96.7,46.336Zm-23.88-5.119A37.437,37.437,0,0,0,78.1,27.01a3.257,3.257,0,0,0,.689.252,3.5,3.5,0,0,0,1.048.087.151.151,0,0,1,.069.07,13.047,13.047,0,0,0,5.751,8.606V38.8a1.119,1.119,0,0,0-.8.264l-.4.339A57.037,57.037,0,0,1,76.255,36.442Zm-.18,10.4,5.4-2.4L83.3,48.1a3.511,3.511,0,0,0,5.248,1.239l1.545-1.159.741,1.111a2.315,2.315,0,0,0,3.853,0l.741-1.111,1.545,1.159A3.512,3.512,0,0,0,102.22,48.1l1.853-3.706,5.5,2.447a6.1,6.1,0,0,1,1.2.707l-4.068,5.085H78.944l-4.068-5.085A6.109,6.109,0,0,1,76.075,46.839Zm-1.038,9.5.93,16.746a3.5,3.5,0,0,0,.234,1.079H73.079l-.6-21.62a6.048,6.048,0,0,1,.875-3.313l3.211,4.013a3.488,3.488,0,0,0-.574.487A3.525,3.525,0,0,0,75.037,56.337Zm33.212-.124-.93,16.746a1.274,1.274,0,0,1-1.271,1.2H79.473a1.274,1.274,0,0,1-1.271-1.2l-.93-16.746a1.273,1.273,0,0,1,1.271-1.344h28.435a1.273,1.273,0,0,1,1.271,1.344Zm4.322,17.949h-3.252a3.5,3.5,0,0,0,.234-1.078l.93-16.746a3.495,3.495,0,0,0-1.446-3.037l3.257-4.072a6.051,6.051,0,0,1,.875,3.313Z"/>
    <path id="Path_527" data-name="Path 527" class="cls-1" d="M232.569,408.822a4.11,4.11,0,1,0,4.11,4.11A4.114,4.114,0,0,0,232.569,408.822Zm0,5.981a1.871,1.871,0,1,1,1.871-1.871A1.874,1.874,0,0,1,232.569,414.8Z" transform="translate(-139.809 -347.818)"/>
  </g>
</svg>
