<svg xmlns="http://www.w3.org/2000/svg" viewBox="463.764 657.5 81.822 60.067">
  <g id="team" transform="translate(463.764 589.434)">
    <g id="Group_1829" data-name="Group 1829" transform="translate(62.765 93.697)">
      <g id="Group_1828" data-name="Group 1828" transform="translate(0 0)">
        <path id="Path_547" data-name="Path 547" d="M402.175,229.857c-2.784-1.392-8-1.408-8.225-1.408a1.2,1.2,0,0,0,0,2.4c1.347,0,5.258.208,7.153,1.155a1.2,1.2,0,0,0,1.072-2.144Z" transform="translate(-392.751 -228.449)"/>
      </g>
    </g>
    <g id="Group_1831" data-name="Group 1831" transform="translate(0 68.066)">
      <g id="Group_1830" data-name="Group 1830" transform="translate(0 0)">
        <path id="Path_548" data-name="Path 548" d="M78.165,112.169l-4.95-1.414a.5.5,0,0,1-.363-.481v-1.652a9.008,9.008,0,0,0,1.146-.94,8.817,8.817,0,0,0,2.7-6.379v-2.28l.479-.957a7.646,7.646,0,0,0,.8-3.4V88.488a1.2,1.2,0,0,0-1.2-1.2H65.245A7.615,7.615,0,0,0,57.639,94.9v.071a6.357,6.357,0,0,0,.668,2.828l.614,1.228v1.958a9.352,9.352,0,0,0,3.845,7.561v1.732c0,.267,0,.378-.99.66l-2.415.69-6.987-2.541a1.2,1.2,0,0,0-.327-.918l-2.233-2.346v-3.938c.236-.194.469-.394.694-.606A14.067,14.067,0,0,0,54.94,91.051V87.906a13.854,13.854,0,0,0,1.282-5.826V69.265a1.2,1.2,0,0,0-1.2-1.2H37.082A11.464,11.464,0,0,0,25.631,79.517V82.08a13.854,13.854,0,0,0,1.282,5.826v2.706a14.645,14.645,0,0,0,5.126,11.178v4.03l-2.233,2.346a1.2,1.2,0,0,0-.327.918L22.1,111.765a6.285,6.285,0,0,0-1.482.776l-1.158-.579a9.154,9.154,0,0,0,4.591-3.716,1.2,1.2,0,0,0,0-1.072c-.864-1.728-.969-4.9-1.053-7.441-.028-.847-.054-1.648-.105-2.361-.409-5.749-4.779-10.084-10.166-10.084S2.975,91.624,2.566,97.373c-.051.713-.077,1.513-.105,2.361-.084,2.545-.189,5.712-1.053,7.44a1.2,1.2,0,0,0,0,1.072c.052.1,1.142,2.211,4.6,3.713l-3.216,1.608A5.017,5.017,0,0,0,0,118.079v8.855a1.2,1.2,0,0,0,2.4,0v-8.855a2.632,2.632,0,0,1,1.463-2.367l4.005-2,1.393,1.324a5.041,5.041,0,0,0,6.948,0L17.6,113.71l1.306.653a6.312,6.312,0,0,0-.964,3.346v9.225a1.2,1.2,0,1,0,2.4,0v-9.225a3.94,3.94,0,0,1,2.585-3.691l7.775-2.827,3.237,4.855a2.471,2.471,0,0,0,1.819,1.092q.124.012.247.012a2.47,2.47,0,0,0,1.751-.727l1.975-1.975v12.485a1.2,1.2,0,1,0,2.4,0V114.449l1.975,1.975a2.469,2.469,0,0,0,1.751.727q.123,0,.247-.012a2.471,2.471,0,0,0,1.819-1.092l3.237-4.855,7.775,2.827a3.94,3.94,0,0,1,2.585,3.691v9.225a1.2,1.2,0,0,0,2.4,0v-9.225a6.336,6.336,0,0,0-1.773-4.385l.3-.085a6.573,6.573,0,0,0,1.115-.4l3.06,3.06v11.037a1.2,1.2,0,0,0,2.4,0V115.9l3.039-3.039a2.852,2.852,0,0,0,.51.2l4.95,1.414a2.657,2.657,0,0,1,1.919,2.544v9.915a1.2,1.2,0,0,0,2.4,0v-9.915A5.065,5.065,0,0,0,78.165,112.169ZM7.689,110.052a8.617,8.617,0,0,1-3.847-2.47,13.212,13.212,0,0,0,.683-2.87,8.938,8.938,0,0,0,3.163,3.9Zm6.866,3.244a2.645,2.645,0,0,1-3.646,0L9.8,112.237a2.48,2.48,0,0,0,.291-1.17v-1.278a8.913,8.913,0,0,0,5.292,0v1.277a2.48,2.48,0,0,0,.291,1.171Zm-1.822-5.5A6.5,6.5,0,0,1,6.242,101.3a1.191,1.191,0,0,0-1.4-1.181c0-.1.007-.206.01-.308.027-.824.052-1.6.1-2.27A8.9,8.9,0,0,1,7.38,91.955a7.447,7.447,0,0,1,10.7,0,8.9,8.9,0,0,1,2.423,5.588c.047.668.073,1.446.1,2.27l.007.214A10.77,10.77,0,0,0,14.7,95.7a15.043,15.043,0,0,0-4.559-.722,1.2,1.2,0,0,0-.83.366L7.144,97.588A1.2,1.2,0,1,0,8.87,99.252l1.8-1.866c1.55.076,6.535.656,8.474,4.925A6.475,6.475,0,0,1,12.733,107.794Zm5.042,2.262v-1.43a8.866,8.866,0,0,0,3.164-3.907,13.2,13.2,0,0,0,.682,2.863A8.658,8.658,0,0,1,17.775,110.056ZM29.31,90.612V87.638a1.2,1.2,0,0,0-.119-.521,11.5,11.5,0,0,1-1.162-5.037V79.517a9.064,9.064,0,0,1,9.054-9.054H53.825V82.08a11.5,11.5,0,0,1-1.162,5.037,1.2,1.2,0,0,0-.119.521v3.413a11.507,11.507,0,0,1-3.674,8.477,11.928,11.928,0,0,1-.92.779l-.021.015a11.525,11.525,0,0,1-7.777,2.32A11.872,11.872,0,0,1,29.31,90.612Zm6.749,24.117a.075.075,0,0,1-.067.024.076.076,0,0,1-.061-.037L32.2,109.124l1.2-1.26,5.655,3.865Zm4.868-4.625-6.491-4.437v-2.237A13.5,13.5,0,0,0,40,105.035q.474.031.943.031a13.883,13.883,0,0,0,6.478-1.588v2.189Zm5,4.613a.076.076,0,0,1-.061.037.074.074,0,0,1-.067-.024l-3-3,5.655-3.865,1.2,1.26ZM67.808,113.7l-2.72-2.72a3.289,3.289,0,0,0,.074-.712v-.506a8.4,8.4,0,0,0,2.373.419c.092,0,.184,0,.276,0a8.9,8.9,0,0,0,2.643-.4v.483a2.865,2.865,0,0,0,.087.7Zm4.52-7.743a6.442,6.442,0,0,1-4.72,1.829,6.709,6.709,0,0,1-6.29-6.81V98.74a1.2,1.2,0,0,0-.127-.536l-.74-1.481a3.948,3.948,0,0,1-.415-1.756V94.9a5.215,5.215,0,0,1,5.209-5.209H75.581v4.978a5.237,5.237,0,0,1-.55,2.33l-.605,1.21a1.2,1.2,0,0,0-.127.536V101.3A6.439,6.439,0,0,1,72.328,105.962Z" transform="translate(0 -68.066)"/>
      </g>
    </g>
    <g id="Group_1833" data-name="Group 1833" transform="translate(74.299 118.046)">
      <g id="Group_1832" data-name="Group 1832">
        <path id="Path_549" data-name="Path 549" d="M466.122,380.814a1.2,1.2,0,0,0-1.2,1.2V389.7a1.2,1.2,0,0,0,2.4,0v-7.689A1.2,1.2,0,0,0,466.122,380.814Z" transform="translate(-464.923 -380.814)"/>
      </g>
    </g>
    <g id="Group_1835" data-name="Group 1835" transform="translate(5.126 119.63)">
      <g id="Group_1834" data-name="Group 1834">
        <path id="Path_550" data-name="Path 550" d="M33.276,390.728a1.2,1.2,0,0,0-1.2,1.2v6.1a1.2,1.2,0,1,0,2.4,0v-6.1A1.2,1.2,0,0,0,33.276,390.728Z" transform="translate(-32.077 -390.728)"/>
      </g>
    </g>
    <g id="Group_1837" data-name="Group 1837" transform="translate(30.757 78.955)">
      <g id="Group_1836" data-name="Group 1836" transform="translate(0 0)">
        <path id="Path_551" data-name="Path 551" d="M212.448,139.762c-4.533-4.533-14.018-3.667-17.885-3.084a2.461,2.461,0,0,0-2.1,2.451v2.761a1.2,1.2,0,1,0,2.4,0V139.13a.079.079,0,0,1,.063-.081,37.866,37.866,0,0,1,7.787-.38c3.738.249,6.445,1.187,8.046,2.789a1.2,1.2,0,0,0,1.695-1.695Z" transform="translate(-192.46 -136.203)"/>
      </g>
    </g>
    <g id="Group_1839" data-name="Group 1839" transform="translate(25.631 120.609)">
      <g id="Group_1838" data-name="Group 1838">
        <path id="Path_552" data-name="Path 552" d="M161.583,396.853a1.2,1.2,0,0,0-1.2,1.2v5.126a1.2,1.2,0,0,0,2.4,0v-5.126A1.2,1.2,0,0,0,161.583,396.853Z" transform="translate(-160.384 -396.853)"/>
      </g>
    </g>
    <g id="Group_1841" data-name="Group 1841" transform="translate(53.825 120.609)">
      <g id="Group_1840" data-name="Group 1840">
        <path id="Path_553" data-name="Path 553" d="M338,396.853a1.2,1.2,0,0,0-1.2,1.2v5.126a1.2,1.2,0,0,0,2.4,0v-5.126A1.2,1.2,0,0,0,338,396.853Z" transform="translate(-336.806 -396.853)"/>
      </g>
    </g>
  </g>
</svg>
